<?xml version="1.0" encoding="utf-8"?>
<!-- Generator: Adobe Illustrator 24.0.1, SVG Export Plug-In . SVG Version: 6.00 Build 0)  -->
<svg version="1.1" xmlns="http://www.w3.org/2000/svg" xmlns:xlink="http://www.w3.org/1999/xlink" x="0px" y="0px"
	 viewBox="0 0 406 306" style="enable-background:new 0 0 406 306;" xml:space="preserve">
<style type="text/css">
	.st0{fill:url(#SVGID_1_);}
	.st1{fill:#E6E7E8;}
	.st2{fill:#231F20;}
	.st3{fill:#FFFFFF;}
	.st4{fill:#D1D3D4;}
</style>
<g id="Layer_2">
	
		<linearGradient id="SVGID_1_" gradientUnits="userSpaceOnUse" x1="281.6717" y1="477.7048" x2="633.439" y2="477.7048" gradientTransform="matrix(0.4313 -0.6648 0.8102 0.5257 -402.3008 203.2918)">
		<stop  offset="0" style="stop-color:#E67E22"/>
		<stop  offset="1" style="stop-color:#EB3349"/>
	</linearGradient>
	<path class="st0" d="M78.3,91.4c-3.4,1.7-6.3,3.9-8.8,6.6c-7.4,8.3-9.3,20.8-4.8,32.4c5.6,14.9,20.3,26.8,35.8,34.2
		c8.9,4.3,19.3,8.2,24.1,16.4c3.9,6.7,2.5,14.2,0.3,20.5c-6.3,18.5-18.5,36.6-11.8,57.2c4.5,14,17.5,26.2,32.1,32.5
		c41.1,17.9,91-5.9,79-49.1c-3.2-11.6-10.6-22.5-16-33.8s-8.9-24.1-3.9-33.9c6.3-12.3,23.8-15.2,39.7-13.7
		c15.9,1.5,32.3,6.4,47.7,5.1c14-1.1,26.3-7.4,35.6-16c9.4-8.8,16.2-20.8,14.8-34.4c-1.7-15.9-14-30.9-27.5-43
		c-18.5-16.4-40.3-29.5-63.3-38.1c-15-5.6-31.9-9.2-44.6-3.5c-11.2,5-16.8,15.9-23,25.3c-7,10.5-15.3,20.2-24.9,28.6
		c-6.2,5.5-13.4,10.7-22.7,11.1c-10.9,0.5-22.2-5.8-33.4-7.8C93.8,86.7,85.2,87.9,78.3,91.4z"/>
</g>
<g id="Layer_1">
	<g id="_519_analytics_process_flatline">
		<path class="st1" d="M240.3,105.1c0,0,11.1,0.5,27.3,14.1s22.1,23,22.1,23V88.4c0,0-20.6-23.8-47.7-32.9L240.3,105.1z"/>
		<path class="st2" d="M289.6,142.7c-0.2,0-0.3-0.1-0.4-0.2c-0.1-0.1-6.1-9.5-22-22.9s-26.9-14-27-14c-0.3,0-0.5-0.3-0.5-0.5
			l1.6-49.5c0-0.2,0.1-0.3,0.2-0.4c0.1-0.1,0.3-0.1,0.4-0.1c27,9,47.8,32.8,48,33c0.1,0.1,0.1,0.2,0.1,0.3v53.8
			c0,0.2-0.1,0.4-0.4,0.5L289.6,142.7z M240.8,104.6c2.4,0.3,12.7,2,27.1,14.2c12.6,10.6,19,18.7,21.3,21.8v-52
			c-1.7-2-21.4-23.7-46.8-32.4L240.8,104.6z"/>
		<path class="st1" d="M123.7,123.8V75.9c18.6-6.5,38.3-9.1,58-7.8v45.9C181.7,114.1,146.2,115,123.7,123.8z"/>
		<path class="st2" d="M123.7,124.3c-0.1,0-0.2,0-0.3-0.1c-0.1-0.1-0.2-0.3-0.2-0.4V75.9c0-0.2,0.1-0.4,0.3-0.5
			c18.7-6.5,38.5-9.1,58.2-7.9c0.3,0,0.5,0.2,0.5,0.5v45.9c0,0.3-0.2,0.5-0.5,0.5c0,0,0,0,0,0c-0.4,0-35.7,1.1-57.9,9.7
			C123.8,124.3,123.8,124.3,123.7,124.3z M124.2,76.3v46.8c20.9-7.9,52.6-9.4,57-9.5v-45C161.9,67.4,142.6,70,124.2,76.3z"/>
		<path class="st2" d="M130.6,115.9c-0.1,0-0.2,0-0.3-0.1c-0.1-0.1-0.2-0.2-0.2-0.4v-34c0-0.3,0.2-0.5,0.5-0.5
			c0.3,0,0.5,0.2,0.5,0.5v33.3c4.6-1.4,30.6-9.3,40.3-7.3c0.3,0.1,0.5,0.3,0.4,0.6c-0.1,0.3-0.3,0.5-0.6,0.4
			c-10.1-2.1-40.1,7.4-40.4,7.5H130.6z"/>
		<path class="st1" d="M101.5,150.5c0,0-17.3,7.2-23.8,28.3v-42.3c0,0-0.4-20.5,23.8-33.6V150.5z"/>
		<path class="st2" d="M77.7,179.3L77.7,179.3c-0.3,0-0.5-0.2-0.5-0.5v-42.4c0-0.2,0-21,24-34c0.2-0.1,0.3-0.1,0.5,0
			c0.2,0.1,0.2,0.3,0.2,0.4v47.6c0,0.2-0.1,0.4-0.3,0.5c-11.4,5.7-19.9,15.8-23.5,28C78.1,179.2,77.9,179.3,77.7,179.3z
			 M100.9,103.8c-22.8,12.7-22.8,32.5-22.8,32.7v39.3c4.1-11.1,12.2-20.2,22.8-25.6L100.9,103.8z M101.4,150.4L101.4,150.4z"/>
		<path class="st3" d="M77.7,136.4c0,0,4.2,18.4,20.5,24.5v49.6c0,0-18.6-12.8-20.5-31.7V136.4z"/>
		<path class="st2" d="M98.2,211c-0.1,0-0.2,0-0.3-0.1c-0.2-0.1-18.8-13.2-20.7-32.1v-42.4c0-0.3,0.2-0.5,0.5-0.6
			c0.3,0,0.5,0.2,0.6,0.5c0,0.2,4.4,18.2,20.2,24.2c0.2,0.1,0.3,0.3,0.3,0.5v49.6c0,0.2-0.1,0.4-0.3,0.4C98.4,211,98.3,211,98.2,211
			z M78.2,139.7v39.1c1.7,16.2,16,28,19.5,30.7v-48.2C85.7,156.7,80.2,145.3,78.2,139.7z"/>
		<path class="st3" d="M296.9,176.2c-1.9,0.4-84.6,38.6-84.6,38.6s-32.4-11.8-33.1-11.4c-0.8,0.4,81.5-33.9,81.5-33.9L296.9,176.2z"
			/>
		<path class="st2" d="M212.3,215.3c-0.1,0-0.1,0-0.2,0c-12.5-4.6-31.6-11.4-32.9-11.4v-0.1c-0.4,0.1-0.4,0-0.5-0.2
			c-0.1-0.2,0-0.5,0.2-0.7h0.1l0,0c1.1-0.4,80.7-33.6,81.5-33.9c0.1,0,0.2,0,0.3,0l36.2,6.8c0.2,0.1,0.4,0.3,0.4,0.5
			c0,0.2-0.2,0.5-0.4,0.5c-1.8,0.5-56.1,25.4-84.5,38.6C212.4,215.4,212.3,215.4,212.3,215.3z M180.8,203.3
			c2.9,0.8,10.6,3.4,31.5,11c8.6-4,71.5-33,82.8-37.8l-34.3-6.4l-40.6,16.9l-28,11.7l-9.2,3.8L180.8,203.3z"/>
		<path class="st4" d="M212.3,210.1h-0.2l-22-6.7c-0.2-0.1-0.3-0.2-0.4-0.5c0-0.2,0.1-0.4,0.3-0.5l62.2-26.1c0.2-0.1,0.5,0,0.6,0.2
			l6.5,11.4c0.1,0.1,0.1,0.3,0,0.4c0,0.1-0.1,0.3-0.3,0.3l-46.7,21.4C212.4,210.1,212.3,210.1,212.3,210.1z M191.8,202.8l20.5,6.3
			l46-21.1l-6-10.6L191.8,202.8z"/>
		<path class="st3" d="M177.2,45.1c-2.6,0.6-5,1.7-7.1,3.4c-2,1.5-4.1,3.7-3.4,6.1c0.3,0.9,0.9,1.9,0.3,2.7
			c-0.4,0.5-1.1,0.5-1.7,0.6c-3.6,0.5-6.1,3.9-5.5,7.5c0.2,1.4,0.8,2.6,1.8,3.6c-4.4,0.2-7.8,4-7.5,8.4c0,0.2,0,0.3,0,0.5
			c0.2,1.1,0.6,2.3,1.1,3.3c0.8,1.8,1.9,3.6,1.6,5.5c-2-0.4-3.9,1.7-3.8,3.8c0.3,2.1,1.6,3.9,3.4,4.9c-2,0.3-3.3,2.7-2.9,4.7
			c0.5,2,1.8,3.8,3.5,4.9c4.2,2.9,9.5,3.6,14.2,1.8c0.4,1.9,1.8,3.5,3.7,4.2c1.9,0.6,3.8,0.9,5.8,0.7c3.6,0,7.6-0.3,10.3-2.8
			c0.6-0.5,1.2-1.4,0.8-2.1c-0.5-0.9-2.1-0.9-2.2-1.9c2.7-0.2,5.3-1.1,7.5-2.8c1.6-1.1,2.7-2.7,3-4.6c0.1-1.5-0.6-3-1.9-3.9
			c1.5-1.3,3.2-3.3,2.4-5.1c-0.6-1.5-2.7-2.5-2.3-4c3.7-1.6,5.4-5.8,3.8-9.5c-0.4-0.9-0.9-1.7-1.6-2.4c3.8-1.4,5.7-5.5,4.3-9.3
			c-0.8-2.1-2.4-3.7-4.5-4.4c1.5-2.5,0.7-5.7-1.8-7.3c-0.8-0.5-1.8-0.8-2.8-0.8c0.8-1.4,0.4-3.1-0.9-4c-1.3-0.8-2.9-1-4.4-0.7
			c-2.5,0.4-4.2,1.1-6.5,0C181.7,45.2,179.8,44.6,177.2,45.1z"/>
		<path class="st2" d="M180.3,112.2c-1.9,0.1-3.7-0.2-5.5-0.8c-1.8-0.7-3.3-2.1-3.9-4c-4.8,1.6-10,0.8-14.1-2
			c-1.9-1.2-3.2-3.1-3.7-5.2c-0.3-2,0.6-3.9,2.3-5c-1.6-1.1-2.6-2.8-2.8-4.7c-0.1-1.4,0.5-2.7,1.6-3.5c0.6-0.6,1.4-0.9,2.3-0.9
			c-0.1-1.5-0.6-3-1.3-4.2l-0.2-0.5c-0.6-1.1-1-2.2-1.2-3.4c-0.3-2.3,0.4-4.7,1.9-6.5c1.3-1.6,3.1-2.6,5.1-2.9
			c-2.3-3.2-1.6-7.6,1.6-9.9c0.9-0.7,2-1.1,3.1-1.3h0.2c0.5-0.1,1-0.1,1.2-0.4s0.1-0.8-0.2-1.6c-0.1-0.2-0.2-0.4-0.2-0.7
			c-0.9-2.9,1.9-5.4,3.6-6.7c2.1-1.7,4.6-2.9,7.3-3.5l0,0c2.6-0.5,4.5,0.1,7,1.2c1.7,0.8,3,0.5,4.7,0.2c0.5-0.1,1-0.2,1.5-0.3
			c1.6-0.4,3.4-0.1,4.8,0.8c0.8,0.6,1.4,1.5,1.6,2.5c0.1,0.5,0,0.9-0.2,1.4c3.2,0.4,5.4,3.3,5,6.5c-0.1,0.6-0.3,1.2-0.5,1.7
			c3.9,1.6,5.8,6.2,4.1,10.1c-0.7,1.8-2.1,3.2-3.8,4c2.8,3.3,2.4,8.2-0.9,10.9c-0.5,0.4-1.1,0.8-1.7,1.1c0,0.5,0.4,1,1,1.7
			c0.5,0.5,0.9,1,1.2,1.6c0.7,1.6,0,3.3-2,5.3c1.1,1,1.7,2.5,1.6,4c-0.3,2-1.5,3.9-3.2,5c-2,1.5-4.4,2.5-6.9,2.8l0.4,0.2
			c0.5,0.2,1,0.6,1.3,1c0.4,1,0,2.2-0.9,2.8c-2.8,2.5-6.7,2.9-10.6,2.9L180.3,112.2z M171.3,106.3c0.3,0,0.5,0.2,0.5,0.4
			c0.4,1.8,1.7,3.2,3.4,3.8c1.8,0.6,3.7,0.8,5.6,0.7c3.7,0,7.4-0.4,10-2.6c0.5-0.4,0.9-1.1,0.6-1.5c-0.2-0.3-0.5-0.5-0.9-0.6
			c-0.6-0.3-1.3-0.6-1.4-1.5c0-0.1,0-0.3,0.1-0.4c0.1-0.1,0.2-0.2,0.4-0.2c2.6-0.2,5.1-1.1,7.2-2.7c1-0.7,2.6-2.3,2.8-4.3
			c0.1-1.4-0.5-2.7-1.6-3.5c-0.1-0.1-0.2-0.2-0.2-0.4c0-0.2,0.1-0.3,0.2-0.4c2-1.8,2.8-3.3,2.3-4.5c-0.3-0.5-0.6-1-1-1.4
			c-0.7-0.8-1.6-1.7-1.2-2.9c0-0.2,0.1-0.3,0.3-0.3c3.4-1.5,5-5.4,3.6-8.8c-0.4-0.8-0.9-1.6-1.5-2.2c-0.1-0.1-0.2-0.3-0.2-0.5
			c0-0.2,0.2-0.3,0.3-0.4c3.5-1.3,5.3-5.1,4-8.6c-0.7-1.9-2.2-3.4-4.2-4.1c-0.1,0-0.3-0.2-0.3-0.3c-0.1-0.1-0.1-0.3,0-0.4
			c1.4-2.3,0.6-5.2-1.6-6.6c-0.7-0.4-1.6-0.7-2.4-0.7l0,0c-0.2,0-0.4-0.1-0.5-0.3c-0.1-0.2-0.1-0.4,0.1-0.5c0.3-0.4,0.4-0.9,0.3-1.4
			c-0.1-0.7-0.5-1.4-1.1-1.8c-1.2-0.7-2.7-0.9-4.1-0.6c-0.5,0.1-1,0.2-1.5,0.2c-1.8,0.3-3.4,0.6-5.3-0.3c-2.3-1.1-4.1-1.6-6.4-1.2
			c-2.5,0.6-4.9,1.7-6.9,3.3c-1.2,0.9-3.9,3.2-3.2,5.6c0.1,0.2,0.1,0.4,0.2,0.6c0.4,0.8,0.4,1.7,0,2.5c-0.5,0.5-1.1,0.8-1.8,0.8
			h-0.2c-3.3,0.5-5.6,3.6-5.1,6.9c0.2,1.2,0.8,2.4,1.6,3.3c0.1,0.1,0.2,0.4,0.1,0.5c-0.1,0.2-0.3,0.3-0.5,0.3
			c-4.1,0.2-7.3,3.8-7,7.9c0,0.1,0,0.3,0,0.4c0.2,1.1,0.6,2.2,1.1,3.1l0.2,0.5c0.8,1.7,1.7,3.4,1.4,5.3c0,0.1-0.1,0.3-0.2,0.3
			c-0.1,0.1-0.3,0.1-0.4,0.1c-0.7-0.1-1.5,0.1-2,0.6c-0.8,0.7-1.2,1.6-1.2,2.7c0.3,1.9,1.4,3.6,3.2,4.4c0.2,0.1,0.3,0.4,0.2,0.7
			c-0.1,0.1-0.2,0.2-0.4,0.3c-1.8,0.3-2.8,2.4-2.5,4.2c0.5,1.9,1.7,3.5,3.3,4.5c4,2.8,9.2,3.5,13.8,1.8
			C171.2,106.3,171.2,106.3,171.3,106.3z M177.2,45.1L177.2,45.1z"/>
		<path class="st3" d="M204.8,108.9c0,0,29.2,37.6,30.9,37.8c0,0,30.8-4.3,32.7-7.4s4.1-2.2,4.1-2.2s1.9-3.7,4.3-4.1
			c2.4-0.4,9.8,4.1,5.5,7c-4.3,2.9-42.7,27.1-47.9,27.6c-16.5,1.7-32.3-37.8-30.4-43.1L204.8,108.9z"/>
		<path class="st2" d="M233.4,168.1c-4.9,0-10.2-3.4-15.4-10c-9-11.4-15.8-29.7-14.5-33.7l0.8-15.5c0-0.2,0.2-0.4,0.4-0.5
			c0.2-0.1,0.4,0,0.5,0.2c11.3,14.5,28.6,36.3,30.6,37.6c11.8-1.7,30.9-5.1,32.2-7.1c1.6-2.6,3.4-2.6,4.3-2.5c0.6-1,2.3-3.6,4.4-4.1
			c1.9-0.4,6.2,1.9,7.2,4.3c0.6,1.3,0,2.9-1.3,3.5c-3.3,2.2-42.6,27.1-48.1,27.7C234.2,168.1,233.8,168.1,233.4,168.1z M205.3,110.2
			l-0.8,14.2c0,0,0,0.1,0,0.1c-1.1,3.2,5.1,21.2,14.3,32.9c3.7,4.7,9.5,10.2,15.6,9.6c5-0.5,42.1-23.9,47.7-27.5
			c1-0.7,1.3-1.4,0.9-2.3c-0.8-2-4.6-4-6.1-3.7c-1.8,0.3-3.4,2.9-3.9,3.8c-0.1,0.2-0.4,0.3-0.6,0.2c-0.1,0-1.8-0.6-3.5,2
			c-2,3.1-29.9,7.1-33.1,7.6c0,0-0.1,0-0.1,0C234,146.9,214.5,122.1,205.3,110.2L205.3,110.2z M204,124.5L204,124.5z"/>
		<path d="M183.2,98.7c0,0-13.2-5.3-29.3,8.5c-7.3,6.2-8.7,12.9-11.8,19.8c2.4,23.1,10.9,63.2,10.9,63.2h55.2c0,0,4.5-33.6,6.1-53.8
			c1-12.6-4.7-22-7.7-27C201.5,100.8,183.2,98.7,183.2,98.7z"/>
		<path class="st2" d="M174.6,101.7c1,1.9,17.8,46,17.8,46v-41.2L174.6,101.7z"/>
		<path class="st2" d="M192.4,148.2c-0.2,0-0.4-0.1-0.5-0.3c-0.2-0.4-16.8-44.1-17.8-46c-0.1-0.2,0-0.6,0.2-0.7
			c0.1-0.1,0.2-0.1,0.4,0l17.8,4.8c0.2,0.1,0.4,0.3,0.4,0.5v41.2C192.9,148,192.8,148.2,192.4,148.2L192.4,148.2z M175.5,102.5
			c2.4,5.8,13.1,33.7,16.4,42.5v-38.1L175.5,102.5z"/>
		<path class="st3" d="M199,65.1l0.8,2.8c0.4,1.2,1.4,1.7,1.9,2.7c0.5,1,0.3,3.3,0.4,4.5c0.2,3.1,0,6.2-0.6,9.2
			c-0.9,4-4.2,7.1-8.2,7.8l-0.4,12.5c0,0-0.1,6.4-8,5.2c-4.6-0.7-8.5-3.8-10.3-8.1l-0.1-16.2c0-1.7-0.7-5,0-6.6
			c0.7-1.6,3.7-2.7,5-4.2c1.8-2,2.8-4.6,2.9-7.3c2.9,0.1,5.6-1.4,7-3.9c2.4,2.9,6.6,3.3,9.5,1.1L199,65.1z"/>
		<path class="st2" d="M186.8,110.5c-0.7,0-1.4-0.1-2-0.2c-4.8-0.7-8.8-3.9-10.7-8.4c0-0.1,0-0.1,0-0.2l-0.1-16.3
			c0-0.5-0.1-1.2-0.1-1.9c-0.2-1.7-0.4-3.7,0.1-4.9c0.4-1.1,1.7-1.9,2.9-2.6c0.8-0.5,1.6-1,2.2-1.7c1.7-2,2.7-4.4,2.8-7
			c0-0.1,0.1-0.3,0.2-0.4c0.1-0.1,0.2-0.2,0.4-0.1c2.7,0.1,5.2-1.3,6.5-3.7c0.1-0.2,0.2-0.3,0.4-0.3c0.2,0,0.3,0.1,0.4,0.2
			c2.2,2.6,6,3.1,8.8,1c0.1-0.1,0.3-0.2,0.5-0.1c0.2,0.1,0.3,0.2,0.3,0.3l0.2,0.6l0,0l0.8,2.8c0.2,0.5,0.5,1,0.9,1.4
			c0.4,0.4,0.8,0.8,1,1.3c0.4,1.2,0.5,2.4,0.4,3.6c0,0.4,0,0.8,0,1.1c0.2,3.1,0,6.3-0.7,9.4c-1,4-4.2,7.2-8.2,8.1l-0.4,12.1
			c-0.1,1.7-0.9,3.3-2.1,4.4C190,110.1,188.4,110.6,186.8,110.5z M175.1,101.6c1.8,4.1,5.5,7,9.9,7.7c2.4,0.4,4.3,0,5.6-1
			c1-0.9,1.7-2.3,1.8-3.7l0.4-12.6c0-0.3,0.2-0.5,0.4-0.5c3.8-0.7,6.9-3.6,7.8-7.4c0.7-3,0.9-6,0.6-9.1c0-0.3,0-0.8,0-1.2
			c0.1-1.1,0-2.1-0.3-3.2c-0.2-0.4-0.5-0.7-0.8-1c-0.5-0.5-0.9-1.1-1.2-1.8l-0.8-2.8c-2.9,1.8-6.7,1.4-9.1-1c-1.5,2.2-4,3.5-6.6,3.5
			c-0.2,2.6-1.3,5.1-3,7.1c-0.7,0.8-1.5,1.5-2.4,2c-1,0.7-2.2,1.4-2.5,2.2c-0.3,1.5-0.3,3-0.1,4.5c0.1,0.7,0.1,1.4,0.1,2
			L175.1,101.6z"/>
		<path class="st3" d="M178.8,79c0,0-3.6-8.8-8.1-3.5c-4.5,5.3,1.6,11.6,5.5,11.2"/>
		<path class="st2" d="M175.8,87.2c-2.3,0-5.1-1.9-6.4-4.4c-1.4-2.4-1-5.5,0.9-7.6c1.2-1.4,2.5-2,3.9-1.9c3,0.5,5,5.3,5.1,5.5
			c0.1,0.2,0,0.6-0.2,0.7c-0.2,0.1-0.6,0-0.7-0.2c0,0,0-0.1,0-0.1c0,0-1.8-4.4-4.3-4.8c-1-0.2-1.9,0.4-2.9,1.5
			c-1.6,1.8-1.9,4.4-0.8,6.4c1.2,2.3,3.8,4.1,5.8,3.9c0.3,0,0.5,0.2,0.6,0.5c0,0.3-0.2,0.5-0.5,0.6C176.1,87.2,176,87.2,175.8,87.2z
			"/>
		<path class="st2" d="M195.2,84.5c-0.9,0-1.8-0.2-2.6-0.4c-0.3-0.1-0.4-0.4-0.4-0.7c0.1-0.3,0.4-0.4,0.7-0.4l0,0
			c0.7,0.2,2.6,0.6,3.6,0.1c0.2-0.5-1.3-3.5-3.4-6.4c-0.2-0.2-0.1-0.5,0.1-0.7c0.2-0.2,0.5-0.1,0.7,0.1c0,0,0,0,0,0
			c0.9,1.3,3.9,5.7,3.5,7.3c-0.1,0.3-0.3,0.5-0.5,0.6C196.4,84.4,195.8,84.5,195.2,84.5z"/>
		<path class="st2" d="M192.1,88.3c-0.7,0-1.5-0.1-2.2-0.3c-2.1-0.6-4-2-5.2-3.8c-0.1-0.3,0-0.6,0.3-0.7c0,0,0,0,0,0
			c0.3-0.1,0.5,0,0.7,0.3c1.1,1.6,2.8,2.8,4.7,3.2c2.4,0.6,5-0.1,7.6-2c0.2-0.2,0.5-0.1,0.7,0.1c0.1,0.2,0.1,0.5-0.1,0.7
			C196.7,87.4,194.5,88.2,192.1,88.3z"/>
		<path class="st2" d="M193.2,92.2c0,0-6.7,0.6-10.5-0.5c0,0,3.9,10,10.2,10.2L193.2,92.2z"/>
		<path class="st2" d="M193,102.3L193,102.3c-6.6-0.2-10.5-10-10.7-10.5c-0.1-0.2,0-0.4,0.1-0.5c0.1-0.1,0.3-0.2,0.5-0.2
			c3.7,1.1,10.3,0.5,10.3,0.5c0.1,0,0.3,0,0.4,0.1c0.1,0.1,0.2,0.2,0.2,0.4l-0.3,9.7C193.5,102.1,193.2,102.3,193,102.3
			C193,102.3,193,102.3,193,102.3z M183.6,92.4c1.1,2.3,4.3,8.4,8.9,8.9l0.3-8.6C189.7,93,186.6,92.9,183.6,92.4z"/>
		
			<ellipse transform="matrix(0.9998 -1.999600e-02 1.999600e-02 0.9998 -1.4735 3.7949)" class="st2" cx="189" cy="75.6" rx="1" ry="1.7"/>
		
			<ellipse transform="matrix(0.9998 -1.999600e-02 1.999600e-02 0.9998 -1.468 3.9758)" class="st2" cx="198.1" cy="75.4" rx="1" ry="1.7"/>
		<path class="st2" d="M186.8,79c-3,0-3.1-0.2-3.2-0.4c-0.1-0.2-0.4-0.5-0.5-5.9c0-0.3,0.2-0.5,0.5-0.5c9.9-0.5,10.2-0.4,10.3-0.4
			c0.2,0.1,0.4,0.3,0.4,0.5l-0.4,6c0,0.3-0.2,0.5-0.5,0.5C190.2,78.9,188.1,79,186.8,79z M184.3,77.9c1,0.1,4.8,0.1,8.5-0.1l0.3-5.1
			c-1.5,0-5.9,0.2-9.1,0.4C184,74.7,184.1,76.3,184.3,77.9z"/>
		<path class="st2" d="M205.4,78.8H196c-0.3,0-0.5-0.2-0.5-0.5c0,0,0,0,0,0l-0.1-6c0-0.3,0.2-0.5,0.5-0.5c9.6-0.1,9.9,0,10,0
			c0.2,0.1,0.4,0.3,0.4,0.5l-0.4,6C205.9,78.6,205.7,78.8,205.4,78.8C205.4,78.8,205.4,78.8,205.4,78.8z M196.5,77.8h8.4l0.3-5.1
			c-1.4,0-5.7,0-8.8,0L196.5,77.8z"/>
		<path class="st2" d="M196,75.4h-2.3c-0.3,0-0.5-0.2-0.5-0.5s0.2-0.5,0.5-0.5h2.3c0.3,0,0.5,0.2,0.5,0.5S196.2,75.4,196,75.4z"/>
		<path class="st3" d="M165.5,136.4c0,0-2.8,27.6-1.4,34.2l46.3,6.5c0,0,11.9-0.5,17.6,1.6c3.5,1.2,9.9,6.7,8.7,8.4
			c-1.1,1.7-4.3,3.9-7.1,3c-2.8-0.8-10.8-3.3-10.8-3.3s6.2,5.6,2.5,5.2c-3.7-0.4-7.8-3-7.8-3s-25.7,4.9-42.2,4.1
			c-20.3-1-28.9-5.8-31.2-17.8c-2.3-12,0.1-43.3,2.1-48.3"/>
		<path class="st2" d="M175.3,193.8c-1.4,0-2.8,0-4.1-0.1c-20.8-1.1-29.4-6-31.7-18.3s0.2-43.7,2.2-48.6c0.1-0.3,0.4-0.4,0.6-0.3
			c0,0,0,0,0,0c0.3,0.1,0.4,0.4,0.3,0.6c0,0,0,0,0,0c-1.9,4.8-4.4,36-2.1,48c2.2,11.7,10.6,16.4,30.8,17.4c16.2,0.8,41.8-4,42.1-4.1
			c0.1,0,0.3,0,0.4,0.1c0,0,4.1,2.5,7.6,2.9c0.2,0.1,0.4,0.1,0.6,0c0.1-0.5-1.5-2.5-3.5-4.3c-0.2-0.2-0.2-0.4-0.1-0.6
			c0.1-0.2,0.4-0.3,0.6-0.2c0.1,0,7.9,2.5,10.7,3.3c2.5,0.7,5.5-1.2,6.6-2.9c0.1-0.2,0.1-0.4,0-0.6c-0.7-2-5.5-6.1-8.4-7.1
			c-5.6-2-17.3-1.5-17.4-1.5l-46.4-6.5c-0.2,0-0.4-0.2-0.4-0.4c-1.4-6.6,1.3-33.2,1.4-34.4c0-0.3,0.3-0.5,0.6-0.5
			c0.3,0,0.5,0.3,0.5,0.6c0,0.3-2.7,26.7-1.5,33.7l45.9,6.5c0.4,0,11.9-0.5,17.7,1.6c3,1.1,8.2,5.3,9.1,7.7c0.2,0.5,0.2,1-0.1,1.4
			c-1.3,1.9-4.7,4.1-7.7,3.3c-1.9-0.5-6.2-1.9-8.7-2.7c1.3,1.3,2.6,3,2.2,4c-0.2,0.5-0.8,0.7-1.7,0.6c-2.8-0.5-5.5-1.5-7.9-2.9
			C211.1,190.1,190.7,193.8,175.3,193.8z"/>
		<path class="st2" d="M165.5,137L165.5,137c-0.3-0.1-0.5-0.3-0.5-0.6l3.6-20.1c0.1-0.3,0.3-0.5,0.6-0.4s0.5,0.3,0.4,0.6l0,0
			l-3.6,20.1C166,136.8,165.8,137,165.5,137z"/>
		<path d="M239,208.6v-73.2c0,0,63.2-2.4,89.3-28.6v75.6C328.4,182.4,302.2,203.8,239,208.6z"/>
		<path class="st2" d="M239,209.1c-0.1,0-0.2,0-0.3-0.1c-0.1-0.1-0.2-0.2-0.2-0.4v-73.2c0-0.3,0.2-0.5,0.5-0.5
			c0.6,0,63.3-2.7,89-28.4c0.1-0.1,0.4-0.2,0.6-0.1c0.2,0.1,0.3,0.3,0.3,0.5v75.6c0,0.2-0.1,0.3-0.2,0.4
			C328.4,183,301.7,204.3,239,209.1L239,209.1z M239.5,135.9V208c59.2-4.6,85.8-24,88.3-25.9v-74.1
			C302.6,132.1,245.4,135.6,239.5,135.9L239.5,135.9z"/>
		<path class="st3" d="M108.4,235.6v-50.2c0,0,28.1,18.5,70,14.4v48.9C178.4,248.8,150.9,257.1,108.4,235.6z"/>
		<path class="st2" d="M163.8,250.9c-12.3,0-31.6-2.6-55.6-14.8c-0.2-0.1-0.3-0.3-0.3-0.5v-50.2c0-0.2,0.1-0.4,0.3-0.4
			c0.2-0.1,0.4-0.1,0.5,0c0.3,0.2,28.4,18.4,69.7,14.3c0.1,0,0.3,0,0.4,0.1c0.1,0.1,0.2,0.2,0.2,0.4v48.9c0,0.2-0.1,0.4-0.4,0.5
			C178.4,249.3,173.2,250.9,163.8,250.9z M108.9,235.3c39.1,19.7,65.6,13.9,69,13.1v-48c-37.5,3.5-64.2-11.2-69-14.1V235.3z"/>
		<path class="st2" d="M253.8,195.1c-0.1,0-0.3,0-0.3-0.1c-0.1-0.1-0.2-0.2-0.2-0.4v-52.1c0-0.3,0.2-0.5,0.5-0.5
			c3.3-0.3,15.9-1.8,16-1.8c0.1,0,0.3,0,0.4,0.1c0.1,0.1,0.2,0.2,0.2,0.4v51.1c0,0.2-0.1,0.4-0.3,0.5
			C265.3,194.2,254.2,195,253.8,195.1L253.8,195.1z M254.3,142.9V194c2.3-0.2,10.9-1,15-2.6v-50.2
			C266.8,141.5,257.6,142.6,254.3,142.9L254.3,142.9z"/>
		<path class="st2" d="M279.6,189.7c-0.1,0-0.2,0-0.3-0.1c-0.1-0.1-0.2-0.2-0.2-0.4v-40.4c0-0.2,0.2-0.5,0.4-0.5
			c5.4-1,10.8-2.5,15.9-4.5c0.1-0.1,0.3-0.1,0.5,0c0.1,0.1,0.2,0.3,0.2,0.4v39.6c0,0.2-0.1,0.4-0.3,0.4
			C290.8,186.8,285.3,188.7,279.6,189.7L279.6,189.7z M280.1,149.2v39.4c5.2-1.1,10.2-2.8,15-5.2V145
			C290.3,146.9,285.3,148.3,280.1,149.2L280.1,149.2z"/>
		<path class="st2" d="M304.8,180.7c-0.1,0-0.2,0-0.3-0.1c-0.1-0.1-0.2-0.2-0.2-0.4v-28.7c0-0.2,0.2-0.4,0.4-0.5
			c5-1.3,9.8-3.4,14.2-6.2c0.2-0.1,0.4-0.1,0.5,0c0.2,0.1,0.3,0.3,0.3,0.5v29c0,0.2-0.1,0.3-0.2,0.4c-4.5,2.7-9.4,4.7-14.5,6
			L304.8,180.7z M305.3,151.8v27.7c4.7-1.2,9.2-3.1,13.4-5.6v-27.8C314.5,148.7,310,150.6,305.3,151.8z"/>
		<path class="st3" d="M299.7,132.8c-0.3,0-0.5-0.2-0.6-0.4c0-0.3,0.2-0.5,0.4-0.6c0.1,0,11.6-3,20.3-9.6c0.2-0.2,0.5-0.1,0.7,0.1
			c0.2,0.2,0.1,0.5-0.1,0.7c-8.9,6.7-20.6,9.7-20.7,9.8L299.7,132.8z"/>
		<path class="st3" d="M308.5,135.5c-0.3,0.1-0.6-0.1-0.6-0.4c-0.1-0.3,0.1-0.6,0.4-0.6l1.8-0.8c3.5-1.4,6.9-3.2,9.9-5.6
			c0.2-0.2,0.5-0.1,0.7,0.1c0.1,0.2,0.1,0.5-0.1,0.6c-3.1,2.4-6.5,4.3-10.1,5.8l-1.8,0.8C308.6,135.4,308.6,135.5,308.5,135.5z"/>
		<path class="st4" d="M93.8,170c-0.1,0-0.2,0-0.3-0.1c-5.1-3.6-9.6-7.9-13.3-12.9c-0.2-0.2-0.1-0.5,0.1-0.7
			c0.2-0.2,0.5-0.1,0.7,0.1c3.6,4.9,8,9.1,13,12.6c0.2,0.2,0.3,0.5,0.1,0.7C94.1,169.9,93.9,170,93.8,170z"/>
		<path class="st4" d="M93.8,179.3c-0.1,0-0.2,0-0.3-0.1c-5.1-3.6-9.6-7.9-13.3-12.9c-0.2-0.2-0.1-0.5,0.1-0.7
			c0.2-0.2,0.5-0.1,0.7,0.1c3.6,4.9,8,9.2,13,12.6c0.2,0.2,0.3,0.5,0.1,0.7C94.1,179.2,93.9,179.3,93.8,179.3z"/>
		<path class="st4" d="M93.8,188.6c-0.1,0-0.2,0-0.3-0.1c-5.1-3.6-9.6-7.9-13.3-12.9c-0.2-0.2-0.1-0.5,0.1-0.7
			c0.2-0.2,0.5-0.1,0.7,0.1c3.6,4.9,8,9.1,13,12.6c0.2,0.2,0.3,0.5,0.1,0.7C94.1,188.5,93.9,188.6,93.8,188.6z"/>
		<path class="st2" d="M281.2,124.3c-0.1,0-0.3-0.1-0.4-0.2c-10.7-12.3-31.4-24.8-31.6-24.9c-0.2-0.1-0.2-0.3-0.2-0.4V65.7
			c0-0.3,0.2-0.5,0.5-0.5c0.3,0,0.5,0.2,0.5,0.5v32.8c2.4,1.5,21.4,13.3,31.6,25c0.2,0.2,0.2,0.5,0,0.7
			C281.5,124.3,281.4,124.3,281.2,124.3z"/>
		<path class="st2" d="M270.1,102.7c-0.4,0-0.7-0.1-1-0.2c-1.8-0.9-2.3-4.2-2.9-7.7c-0.4-2.5-0.8-5.1-1.7-6.7
			c-0.2-0.4-0.5-0.6-0.9-0.6c-2.8-0.1-8.7,7.6-10.8,10.6c-0.2,0.2-0.5,0.2-0.7,0c-0.2-0.2-0.2-0.4-0.1-0.6c0.8-1.1,7.7-11,11.6-11
			h0.1c0.7,0,1.4,0.5,1.7,1.1c1,1.7,1.4,4.4,1.8,7c0.5,3,1,6.3,2.3,6.9c0.6,0.2,1.3,0.1,1.8-0.2c2.2-1.2,4.1-2.8,5.7-4.7
			c1.8-2.1,4-4,6.5-5.3c0.2-0.1,0.6-0.1,0.7,0.2c0.1,0.2,0,0.6-0.2,0.7c-2.3,1.3-4.4,3.1-6.2,5.1c-1.7,2-3.7,3.7-6,4.9
			C271.2,102.5,270.7,102.7,270.1,102.7z"/>
		<path class="st2" d="M140,113.2c-0.3,0-0.5-0.2-0.5-0.5V84c0-0.2,0.1-0.4,0.4-0.5c1.9-0.6,3.9-1,5.9-1.3c0.1,0,0.3,0,0.4,0.1
			c0.1,0.1,0.2,0.2,0.2,0.4v28.1c0,0.3-0.2,0.5-0.5,0.5c-0.3,0-0.5-0.2-0.5-0.5V83.3c-1.6,0.3-3.2,0.6-4.8,1.1v28.3
			C140.5,113,140.3,113.2,140,113.2z"/>
		<path class="st4" d="M164,241.3L164,241.3c-0.2,0-0.4-0.1-0.5-0.3l-11.2-31.1l-12.3,24c-0.1,0.2-0.2,0.3-0.4,0.3
			c-0.2,0-0.3-0.1-0.4-0.2L127,217.9l-7.7,12.2c-0.1,0.2-0.5,0.3-0.7,0.2l-6.5-3.9c-0.2-0.1-0.3-0.4-0.2-0.7c0,0,0,0,0,0
			c0.1-0.2,0.5-0.3,0.7-0.2c0,0,0,0,0,0l6.1,3.7l7.8-12.4c0.1-0.1,0.2-0.2,0.4-0.2c0.2,0,0.3,0.1,0.4,0.2l12.2,15.9l12.5-24.3
			c0.1-0.2,0.4-0.3,0.7-0.2c0.1,0.1,0.2,0.2,0.2,0.3l11.2,31.1l5.4-11.4c0.1-0.3,0.4-0.4,0.7-0.3s0.4,0.4,0.3,0.7c0,0,0,0,0,0.1
			l-5.9,12.5C164.3,241.2,164.2,241.3,164,241.3z"/>
		<circle class="st3" cx="118.9" cy="229.9" r="1.6"/>
		<path class="st4" d="M118.9,231.9c-1.1,0-2-0.9-2-2c0-1.1,0.9-2,2-2c1.1,0,2,0.9,2,2C120.9,231,120,231.9,118.9,231.9z
			 M118.9,228.8c-0.6,0-1,0.5-1,1s0.5,1,1,1s1-0.5,1-1S119.5,228.8,118.9,228.8z"/>
		<circle class="st3" cx="126.9" cy="217" r="1.6"/>
		<path class="st4" d="M126.9,219.1c-1.1,0-2-0.9-2-2s0.9-2,2-2c1.1,0,2,0.9,2,2S128.1,219.1,126.9,219.1z M126.9,216
			c-0.6,0-1,0.5-1,1s0.5,1,1,1c0.6,0,1-0.5,1-1S127.5,216,126.9,216z"/>
		<circle class="st3" cx="152.4" cy="208.6" r="1.6"/>
		<path class="st4" d="M152.4,210.6c-1.1,0-2-0.9-2-2s0.9-2,2-2s2,0.9,2,2S153.5,210.6,152.4,210.6z M152.4,207.5c-0.6,0-1,0.5-1,1
			s0.5,1,1,1s1-0.5,1-1S153,207.5,152.4,207.5z"/>
		<circle class="st3" cx="164" cy="240.8" r="1.6"/>
		<path class="st4" d="M164,242.9c-1.1,0-2-0.9-2-2s0.9-2,2-2c1.1,0,2,0.9,2,2S165.1,242.9,164,242.9z M164,239.8c-0.6,0-1,0.5-1,1
			s0.5,1,1,1c0.6,0,1-0.5,1-1S164.6,239.8,164,239.8z"/>
		<circle class="st3" cx="139.6" cy="233.6" r="1.6"/>
		<path class="st4" d="M139.6,235.6c-1.1,0-2-0.9-2-2s0.9-2,2-2s2,0.9,2,2S140.7,235.6,139.6,235.6z M139.6,232.5c-0.6,0-1,0.5-1,1
			s0.5,1,1,1s1-0.5,1-1S140.1,232.5,139.6,232.5z"/>
		<path class="st3" d="M246.4,217.4c-20.7,10.3-43.4,10.4-43.4,10.4V261c15,0.5,29.9-2.8,43.4-9.4L246.4,217.4z"/>
		<path class="st2" d="M205.7,261.6c-0.9,0-1.8,0-2.7,0c-0.3,0-0.5-0.2-0.5-0.5v-33.3c0-0.3,0.2-0.5,0.5-0.5
			c0.2,0,22.7-0.3,43.1-10.4c0.2-0.1,0.3-0.1,0.5,0c0.1,0.1,0.2,0.3,0.2,0.4v34.2c0,0.2-0.1,0.4-0.3,0.5
			C233.9,258.4,219.9,261.6,205.7,261.6z M203.5,260.6c14.6,0.4,29.2-2.8,42.3-9.2v-33.1c-18.7,9-38.9,10-42.3,10.1V260.6z"/>
		<path d="M213.1,241.8c-0.2,6.8,5.1,12.4,11.9,12.6c6.8,0.2,12.4-5.1,12.6-11.9c0-0.2,0-0.5,0-0.7h-12.3v-12.2
			C218.6,229.6,213.2,235.1,213.1,241.8z"/>
		<path class="st1" d="M227.4,227.8V240h12.2C239.5,233.3,234.1,227.8,227.4,227.8z"/>
		<path class="st4" d="M266.9,218.4c-0.2,0-0.5-0.2-0.5-0.4c0-0.3,0.1-0.5,0.4-0.6c0.2,0,24.1-4.5,37.7-12c0.2-0.2,0.5-0.1,0.7,0.1
			c0.2,0.2,0.1,0.5-0.1,0.7c0,0-0.1,0-0.1,0.1C291.3,213.9,267.3,218.4,266.9,218.4L266.9,218.4z"/>
		<path class="st4" d="M266.9,227.4c-0.3,0-0.5-0.2-0.6-0.5c0-0.3,0.2-0.5,0.5-0.6c0.2-0.1,24.1-4.5,37.7-12.1
			c0.2-0.2,0.5-0.1,0.7,0.1c0.2,0.2,0.1,0.5-0.1,0.7c0,0-0.1,0-0.1,0.1C291.3,222.9,267.3,227.4,266.9,227.4L266.9,227.4z"/>
		<path class="st4" d="M266.9,236.4c-0.3,0-0.5-0.2-0.6-0.5c0-0.3,0.2-0.5,0.5-0.6c0.2,0,24.1-4.5,37.7-12.1c0.2-0.1,0.5,0,0.7,0.2
			c0.1,0.2,0,0.6-0.2,0.7c0,0,0,0,0,0C291.3,231.9,267.3,236.4,266.9,236.4L266.9,236.4z"/>
		<path class="st4" d="M266.9,245.4c-0.3,0-0.5-0.2-0.6-0.5c0-0.3,0.2-0.5,0.5-0.6l0,0c6.9-1.3,13.8-3.1,20.5-5.1
			c0.3-0.1,0.6,0.1,0.6,0.3c0.1,0.3-0.1,0.5-0.3,0.6C280.9,242.3,274,244,266.9,245.4L266.9,245.4z"/>
		<path class="st4" d="M112.4,141.1c-0.2,0-0.3-0.1-0.4-0.2c-0.1-0.2-0.1-0.6,0.2-0.7c6.9-4.1,20.9-7,21.5-7.2
			c0.3-0.1,0.5,0.1,0.6,0.4c0,0,0,0,0,0c0.1,0.3-0.1,0.5-0.4,0.6c0,0,0,0,0,0c-0.2,0-14.5,3-21.3,7
			C112.5,141.1,112.5,141.1,112.4,141.1z"/>
		<path class="st4" d="M112.4,146.2c-0.3,0-0.5-0.2-0.5-0.5c0-0.2,0.1-0.3,0.2-0.4c6.9-4.1,20.9-7,21.5-7.1c0.3-0.1,0.6,0.1,0.6,0.4
			c0.1,0.3-0.1,0.6-0.4,0.6c-0.2,0-14.5,3-21.3,7C112.5,146.2,112.5,146.2,112.4,146.2z"/>
		<path class="st4" d="M112.4,151.3c-0.2,0-0.3-0.1-0.4-0.3c-0.1-0.2-0.1-0.6,0.2-0.7c6.9-4.1,20.9-7,21.5-7.1
			c0.3-0.1,0.5,0.1,0.6,0.4c0.1,0.3-0.1,0.5-0.4,0.6c0,0,0,0,0,0c-0.2,0-14.5,3-21.3,7C112.5,151.3,112.5,151.3,112.4,151.3z"/>
		<path class="st4" d="M112.4,156.4c-0.3,0-0.5-0.2-0.5-0.5c0-0.2,0.1-0.3,0.2-0.4c4-2.1,8.3-3.8,12.7-4.9c0.3-0.1,0.6,0.1,0.6,0.4
			c0.1,0.3-0.1,0.6-0.4,0.6c-4.3,1.1-8.5,2.7-12.5,4.8C112.6,156.4,112.5,156.4,112.4,156.4z"/>
	</g>
</g>
</svg>
