<?xml version="1.0" encoding="utf-8"?>
<!-- Generator: Adobe Illustrator 24.0.1, SVG Export Plug-In . SVG Version: 6.00 Build 0)  -->
<svg version="1.1" xmlns="http://www.w3.org/2000/svg" xmlns:xlink="http://www.w3.org/1999/xlink" x="0px" y="0px"
	 viewBox="0 0 666.7 729.3" style="enable-background:new 0 0 666.7 729.3;" xml:space="preserve">
<style type="text/css">
	.st0{fill:url(#SVGID_1_);}
	.st1{fill:url(#SVGID_2_);}
	.st2{fill:#3F3D56;}
	.st3{fill:#F2F2F2;}
	.st4{fill:#E6E6E6;}
	.st5{fill:#FFFFFF;}
	.st6{fill:#E4E4E4;}
	.st7{fill:#FFB6B6;}
	.st8{fill:#2F2E41;}
	.st9{opacity:0.4;enable-background:new    ;}
	.st10{fill:#CCCCCC;}
	.st11{opacity:0.17;enable-background:new    ;}
</style>
<g id="Layer_2">
	
		<linearGradient id="SVGID_1_" gradientUnits="userSpaceOnUse" x1="28.9001" y1="481.756" x2="380.6673" y2="481.756" gradientTransform="matrix(1.2525 -0.9415 1.2457 1.6572 -551.7775 -263.7805)">
		<stop  offset="0" style="stop-color:#E67E22"/>
		<stop  offset="1" style="stop-color:#EB3349"/>
	</linearGradient>
	<path class="st0" d="M139.9,145.9c-7.6,0.6-14.8,2.5-21.1,5.8c-19.5,10.1-31,32.8-29.6,58.8c1.7,33.2,22.8,67.8,48.2,94.3
		c14.7,15.3,32.5,31.1,36.5,50.7c3.3,16.1-4,29.3-12.2,39.9c-23.8,30.8-58.7,56-58.7,101c0,30.5,17.6,64.3,42,88.2
		c68.7,67.1,180.5,60.7,184-32.2c1-25-6.6-51.9-10.1-77.9c-3.5-26.1-2.2-53.6,13.6-68.5c19.9-18.7,55.7-10.6,85.7,5
		c30,15.6,58.8,37.9,89.5,47.7c28,8.9,55.7,6.7,79.1-2.7c23.8-9.5,44.4-27.3,50.2-54.7c6.7-32-7.9-70.8-26.7-104.8
		c-25.6-46.3-59.8-88.9-99.1-123.6c-25.6-22.7-56.2-43-84.5-42.1c-24.9,0.8-42.6,17.3-60.5,30.5c-20.1,14.8-42.4,26.8-66.3,35.5
		c-15.5,5.7-32.8,10-51,3.5c-21.5-7.7-39.4-28.8-60-41.5C173,149.2,155.5,144.7,139.9,145.9z"/>
	
		<linearGradient id="SVGID_2_" gradientUnits="userSpaceOnUse" x1="27.5017" y1="480.6761" x2="379.269" y2="480.6761" gradientTransform="matrix(1.2525 -0.9415 1.2457 1.6572 -551.7775 -263.7805)">
		<stop  offset="0" style="stop-color:#E67E22"/>
		<stop  offset="1" style="stop-color:#EB3349"/>
	</linearGradient>
	<path class="st1" d="M136.8,145.5c-7.6,0.6-14.8,2.5-21.1,5.8c-19.5,10.1-31,32.8-29.6,58.8c1.7,33.2,22.8,67.8,48.2,94.3
		c14.7,15.3,32.5,31.1,36.5,50.7c3.3,16.1-4,29.3-12.2,39.9c-23.8,30.8-58.7,56-58.7,101c0,30.5,17.6,64.3,42,88.2
		c68.7,67.1,180.5,60.7,184-32.2c1-25-6.6-51.9-10.1-77.9c-3.5-26.1-2.2-53.6,13.6-68.5c19.9-18.7,55.7-10.6,85.7,5
		s58.8,37.9,89.5,47.7c28,8.9,55.7,6.7,79.1-2.7c23.8-9.5,44.4-27.3,50.2-54.7c6.7-32-7.9-70.8-26.7-104.8
		c-25.6-46.3-59.8-88.9-99.1-123.6c-25.6-22.7-56.2-43-84.5-42.1c-24.9,0.8-42.6,17.3-60.5,30.5c-20.1,14.8-42.4,26.8-66.3,35.5
		c-15.5,5.7-32.8,10-51,3.5c-21.5-7.7-39.4-28.8-60-41.5C169.9,148.7,152.5,144.2,136.8,145.5z"/>
</g>
<g id="Layer_1">
	<path class="st2" d="M110.7,250.9c6-4.1,13.8,5,9.5,10.6c-4.3,5.7-13.6,4.1-16.8-1.7c-4.1-7.4,0-16.3,6.6-20.6
		c7.5-4.9,16.7-5.2,25.3-4.7c8.7,0.5,17.3,1.1,26-0.2c7.4-1.1,14.6-3.1,21.4-6c14.1-5.9,26.5-15.3,36-27.2c4.4-5.6,8.6-12,11.1-18.7
		c2-5.2,2.9-12,0.1-17.1c-2.2-4.3-7.5-5.9-11.8-3.6c-0.5,0.3-1,0.6-1.5,1c-4.6,3.8-5.9,10.8-2.3,15.7c3.8,5.3,10.9,7.1,17.1,6.1
		c8.6-1.3,15.5-7.4,22-12.6l48.5-38.5c8-6.4,15.9-12.8,24-19c6.6-5.1,14.6-10,23.2-7.3c3.5,1.1,6.9,3.7,7.8,7.4
		c0.7,3.5-0.7,7-3.4,9.2c-2.5,2.1-6.1,1.8-8.2-0.7c-0.1-0.1-0.2-0.3-0.3-0.4c-1.8-2.5-2-6.1-0.9-9c2.8-7.6,13-8.4,19.8-7.8
		c8,0.8,15.8,3.4,22.8,7.5c14.4,8.4,25.1,22,31.3,37.3c6.9,17,9.1,35.7,8.8,53.9c-0.1,3.7-0.3,7.8-2.4,11c-2,3.1-5.6,4.1-8.8,2
		c-1-0.7-2.4-2-2.1-3.4c0.3-1.8,3.9-1.8,5.3-1.7c3.8,0.2,7.5,2.1,10.2,4.7c6.6,6.2,7.1,15.7,6.2,24.2c-0.9,9.3-3.6,18.5-2.6,27.9
		c1.7,15.4,14.4,24,26.8,31c6.4,3.6,12.8,7.1,18.6,11.7c5.8,4.7,10.9,10.3,15.1,16.5c8.3,12.2,13.2,26.5,14.2,41.2
		c0.5,7.4-0.1,14.8-1.7,22c-1.6,7.1-4.2,15.9-11,19.7c-3.3,1.9-7.4,1.5-10.4-0.9c-2.7-2.2-4.1-6.1-1.3-8.9c2.3-2.3,6.1-1.8,8.9-0.9
		c3.4,1.1,6.1,3.2,8.6,5.7c4.8,4.7,10.5,10.4,17.9,9c1.4-0.3,0.8-2.4-0.6-2.1c-8.9,1.8-14.3-8.5-20.8-12.5c-4.8-2.9-12.9-5-16.6,0.6
		c-4,6.1,2.4,12.6,8.4,13.4c7.8,1,13.2-6.6,15.8-12.9c6.1-14.6,6.3-31.7,2.5-46.9c-3.7-15.4-11.7-29.5-23.1-40.5
		c-5.8-5.5-12.3-9.7-19.2-13.6c-6.9-3.9-14.2-7.7-20.1-13.2c-6.7-5.9-10.4-14.4-10.2-23.3c0.1-10.1,3.3-19.9,3.1-30
		c-0.2-8.4-3-16.6-10.3-21.3c-3-2-6.6-3-10.2-2.9c-1.5,0.1-3.6,0.4-4.8,1.3c-1,0.7-1.2,2.5-1,3.6c0.5,2.7,3,4.5,5.5,5.3
		c3.1,1,6.4,0,8.4-2.5c2.4-2.7,3.2-6.4,3.5-9.9c0.5-4.8,0.2-9.6,0-14.4c-0.9-19.3-4.7-39.1-14.7-55.9c-8.5-14.3-21.8-26.2-37.8-31.5
		c-7.5-2.5-16.4-4-24.2-1.7c-6.7,2-11.8,7.4-10.7,14.7c0.9,6.1,7.3,10.4,12.9,6.5c5.1-3.5,6.4-10.5,2.8-15.6c-0.3-0.5-0.7-0.9-1-1.3
		c-5.4-5.7-14.3-5.6-21.1-2.8c-4.1,1.7-7.7,4.3-11.2,7.1c-4.4,3.5-8.8,7-13.2,10.5l-53.1,42.1c-4.2,3.3-8.3,6.8-12.6,9.9
		c-4,2.9-8.5,5.6-13.5,6.6c-7,1.3-18.1-2.2-17.2-11c0.3-3.4,2.6-7.3,6.1-8.2c3.4-1,6.7,1.2,7.9,4.3c2.8,6.9-0.5,14.7-3.8,20.8
		c-8.1,14.9-20.9,27.1-35.9,35c-7.5,4-15.5,6.8-23.9,8.5c-9.4,1.8-18.5,1.5-28,0.9c-9.2-0.6-18.8-0.5-27,4.3
		c-6.7,3.9-11.2,11-10.1,18.9c0.9,6.9,6.4,12.1,13.6,11.5c6-0.5,12-5.6,9.8-12.1c-1.8-5.4-8.5-9.6-13.7-6
		C108.5,249.8,109.6,251.7,110.7,250.9L110.7,250.9z"/>
	<path class="st3" d="M569.1,407h-52.4c-1.7,0-3.1,1.4-3.1,3.1v32.6c0,1.7,1.4,3.1,3.1,3.1h52.4c1.7,0,3.1-1.4,3.1-3.1v-32.6
		C572.2,408.4,570.8,407,569.1,407z"/>
	<path class="st4" d="M569.1,407h-52.4c-1.7,0-3.1,1.4-3.1,3.1v32.6c0,1.7,1.4,3.1,3.1,3.1h52.4c1.7,0,3.1-1.4,3.1-3.1v-32.6
		C572.2,408.4,570.8,407,569.1,407z M570.1,430.5c0,6.9-5.6,12.5-12.5,12.6c-5.3,0.1,2.9,0.1-3.5,0.1c-14.7,0-30-0.1-35.7-0.2
		c-1.6,0-2.8-1.3-2.8-2.9v-30c0-0.6,0.5-1,1-1h52.4c0.6,0,1,0.5,1,1V430.5z"/>
	<path class="st4" d="M562.7,388.2h-39.9c-0.7,0-1.4,0.5-1.6,1.1l-6.2,17.3c-0.3,0.9,0.1,1.9,1,2.2c0.2,0.1,0.4,0.1,0.6,0.1
		l53.6,0.1h0c0.9,0,1.7-0.8,1.7-1.7c0-0.2,0-0.5-0.1-0.7l-0.1,0l0.1,0l-7.5-17.4C564,388.7,563.4,388.2,562.7,388.2z"/>
	<path class="st4" d="M571.9,407.1c0,0.2,0,0.5-0.1,0.7l-7.5,13.4c-0.3,0.6-0.9,1-1.6,1h-39.9c-0.7,0-1.4-0.5-1.6-1.1l-6.2-13.3
		c-0.3-0.9,0.1-1.9,1-2.2c0,0,0,0,0,0c0.2-0.1,0.4-0.1,0.6-0.1l6.5,0l2.7,0l35.1-0.1l2.7,0l6.5,0h0
		C571.1,405.3,571.9,406.1,571.9,407.1z"/>
	<path class="st4" d="M520.7,431.5c0.8,0,11.7,0.7,11.7,1.5s-10.9,1.4-11.7,1.4c-0.8,0-1.4-0.6-1.4-1.4
		C519.2,432.2,519.9,431.5,520.7,431.5z"/>
	<path class="st3" d="M560.2,377.7h-33.7c-1.9,0-3.4,1.5-3.4,3.4v41h39.6c0.3,0,0.6-0.1,0.9-0.3v-40.8
		C563.6,379.2,562.1,377.7,560.2,377.7z"/>
	<path class="st5" d="M547.3,380.5h-18.5c-1.7,0-3.1,1.4-3.1,3.1v38.6h35.1v-28.1C560.9,386.6,554.8,380.5,547.3,380.5z"/>
	<path class="st6" d="M554.9,418.7h-23.2c-0.4,0-0.8,0.3-0.8,0.8c0,0.4,0.3,0.8,0.8,0.8c0,0,0,0,0,0h23.2c0.4,0,0.8-0.3,0.8-0.8
		C555.7,419.1,555.4,418.7,554.9,418.7C554.9,418.7,554.9,418.7,554.9,418.7z"/>
	<path class="st6" d="M554.9,415.7h-23.2c-0.4,0-0.8,0.3-0.8,0.8c0,0.4,0.3,0.8,0.8,0.8h23.2c0.4,0,0.8-0.3,0.8-0.8
		C555.7,416.1,555.4,415.8,554.9,415.7C554.9,415.7,554.9,415.7,554.9,415.7z"/>
	<path class="st6" d="M541.8,412.8h-10c-0.4,0-0.8,0.3-0.8,0.8c0,0.4,0.3,0.8,0.8,0.8c0,0,0,0,0,0h10c0.4,0,0.8-0.3,0.8-0.8
		C542.6,413.1,542.2,412.8,541.8,412.8C541.8,412.8,541.8,412.8,541.8,412.8z"/>
	<path class="st6" d="M554.9,406.5h-23.2c-0.4,0-0.8,0.3-0.8,0.8c0,0.4,0.3,0.8,0.8,0.8h23.2c0.4,0,0.8-0.3,0.8-0.8
		C555.7,406.9,555.4,406.5,554.9,406.5C554.9,406.5,554.9,406.5,554.9,406.5z"/>
	<path class="st6" d="M554.9,403.5h-23.2c-0.4,0-0.8,0.3-0.8,0.8c0,0.4,0.3,0.8,0.8,0.8c0,0,0,0,0,0h23.2c0.4,0,0.8-0.3,0.8-0.8
		C555.7,403.9,555.4,403.5,554.9,403.5C554.9,403.5,554.9,403.5,554.9,403.5z"/>
	<path class="st6" d="M541.8,400.5h-10c-0.4,0-0.8,0.3-0.8,0.8c0,0.4,0.3,0.8,0.8,0.8h10c0.4,0,0.8-0.3,0.8-0.8
		C542.6,400.9,542.2,400.5,541.8,400.5C541.8,400.5,541.8,400.5,541.8,400.5z"/>
	<path class="st6" d="M554.9,394.3h-23.2c-0.4,0-0.8,0.3-0.8,0.8c0,0.4,0.3,0.8,0.8,0.8h23.2c0.4,0,0.8-0.3,0.8-0.8
		C555.7,394.6,555.4,394.3,554.9,394.3C554.9,394.3,554.9,394.3,554.9,394.3z"/>
	<path class="st6" d="M554.9,391.3h-23.2c-0.4,0-0.8,0.3-0.8,0.8c0,0.4,0.3,0.8,0.8,0.8h23.2c0.4,0,0.8-0.3,0.8-0.8
		C555.7,391.6,555.4,391.3,554.9,391.3C554.9,391.3,554.9,391.3,554.9,391.3z"/>
	<path class="st6" d="M541.8,388.3h-10c-0.4,0-0.8,0.3-0.8,0.8c0,0.4,0.3,0.8,0.8,0.8h10c0.4,0,0.8-0.3,0.8-0.8
		C542.6,388.7,542.2,388.3,541.8,388.3C541.8,388.3,541.8,388.3,541.8,388.3z"/>
	<circle class="st7" cx="292.4" cy="224.5" r="22.3"/>
	<path class="st8" d="M317.9,211.7c-2.4-3.6-6.8-6.1-11-5.4c-1.2-8.2-8.9-13.9-17.1-12.7c-3.1,0.4-5.9,1.8-8.2,3.9
		c-1.3-0.9-3.1-1.1-4.6-0.5c-1.5,0.7-2.8,1.7-3.7,3c-5,6.2-6.2,14.7-3,22.1c-0.5-1.9,1.4-3.7,3.3-4.1c1.9-0.4,3.9,0,5.9-0.3
		c2.5-0.4,4.7-1.8,7.3-2.1c2.1-0.3,4.2,0.3,6.3,0.8c2.1,0.5,4.2,1.1,6.3,0.8c2.1-0.3,4.8,7.7,4.8,13.4c0,1.1,0.2,2.4,1.3,2.7
		c1.3,0.3,2-1.5,3.2-2c1.2-0.3,2.4,0.3,2.8,1.5c0.3,1.1,0.1,2.4-0.7,3.3c-0.8,0.9-1.6,1.7-2.6,2.3l0.5,0.4c0.8,1.1,2.6,1.2,3.8,0.5
		c1.2-0.8,2.1-1.8,2.7-3.1c2.2-3.7,4.2-7.7,5-11.9C320.7,219.9,320.2,215.3,317.9,211.7z"/>
	<polygon class="st7" points="318.6,615.9 306.5,615.9 300.8,569.3 318.6,569.3 	"/>
	<path class="st8" d="M319,628.5l-37.1,0V628c0-8,6.5-14.4,14.4-14.4h0l6.8-5.1l12.7,5.1l3.2,0L319,628.5z"/>
	<polygon class="st7" points="340.4,594.5 330.9,602 297.5,569.1 311.5,558 	"/>
	<path class="st8" d="M348.5,604.2l-29.1,23l-0.3-0.4c-4.9-6.3-3.9-15.3,2.4-20.3l0,0l2.1-8.2l13.1-3.8l2.5-2L348.5,604.2z"/>
	<polygon class="st8" points="256.2,397.6 255.4,411.2 259,415.5 258.6,429.1 262.1,438 264.5,466.3 298.8,584.4 329.7,574.5 
		296,464.4 336.5,463.4 337.9,401.4 330.7,387.5 	"/>
	<polygon class="st8" points="332.6,454.1 336.5,463.4 321.4,595.2 300.3,596.7 291.1,449.4 	"/>
	<polygon points="311.9,259.9 304.9,250.3 282.5,251.2 282.1,258.6 267.2,399.4 281.8,399 300,403.3 334.9,391 	"/>
	<path class="st2" d="M272.9,402h-34.4l9-63.4l3.6-25.7c0,0-2.6-18.4-3.8-27.9c-0.1-1,0.1-2.1,0.5-3c0.4-0.9,0.9-1.7,1.6-2.4
		c4.2-4.8,13.6-9,19.5-11.3c3-1.2,5.2-1.8,5.2-1.8l8-7.9C293.6,273,272.9,402,272.9,402z"/>
	<path class="st2" d="M307.5,254.7l10.9,6.3c0,0,32.3,5.3,35.5,17.4L342,314.3v75.5l-28.8,11.6C313.2,401.4,288.3,279.4,307.5,254.7
		z"/>
	<polyline class="st9" points="296.5,446.4 291.1,508.1 300.2,580 	"/>
	<path class="st7" d="M167.7,331.3c3.4-2.4,8-1.6,10.5,1.7c0.3,0.4,0.5,0.7,0.7,1.1l26.4-3l-6.3,12.3l-24.2,1
		c-3.9,1.5-8.2-0.3-9.8-4.2C163.8,337,164.9,333.3,167.7,331.3L167.7,331.3z"/>
	<polygon class="st2" points="278.7,277.3 286.3,281.8 243.9,341.5 192.2,345.9 190.1,331.2 228.2,319.7 247.1,283.2 	"/>
	<path class="st7" d="M433,326.3c-3.4-2.4-8-1.6-10.5,1.7c-0.3,0.4-0.5,0.7-0.7,1.1l-26.4-3l6.3,12.3l24.2,1
		c3.9,1.5,8.2-0.3,9.8-4.2C436.9,332,435.8,328.3,433,326.3L433,326.3z"/>
	<polygon class="st2" points="322,272.3 314.4,276.8 356.8,336.5 408.5,340.9 410.6,326.1 372.5,314.7 353.6,278.2 	"/>
	<path class="st4" d="M218.9,258.2v-0.8h-13.2V239h-0.8v18.4h-15.2v-14.2c-0.3,0.2-0.5,0.4-0.8,0.6v13.6h-10
		c-0.1,0.3-0.2,0.5-0.3,0.8H189v15.5h-12.8c0,0.3,0,0.5,0.1,0.8H189v12.3h-9.6c0.1,0.3,0.2,0.5,0.4,0.8h9.2V298h0.8v-10.4h15.2V298
		h0.8v-10.4h13.2v-0.8h-13.2c0-6.8,5.5-12.3,12.3-12.3c0,0,0,0,0,0h0.9v-0.8h-13.2v-15.5H218.9z M204.9,286.8h-15.2v-12.3h15.2
		V286.8z M204.9,273.7h-15.2v-0.3c0-8.4,6.8-15.2,15.2-15.2c0,0,0,0,0,0V273.7z"/>
	<path class="st2" d="M333.9,149c-0.2,0.1-0.5,0-0.6-0.2l-1.1-2.6c-0.1-0.2,0-0.5,0.2-0.6c0.2-0.1,0.5,0,0.6,0.2l1.1,2.6
		C334.2,148.7,334.1,148.9,333.9,149z"/>
	<path class="st2" d="M356,129.4L356,129.4l-3.3-7.9c-1-2.5-3.9-3.7-6.5-2.7c0,0,0,0,0,0l0,0l-16.7,6.9c-2.5,1-3.7,3.9-2.7,6.5
		c0,0,0,0,0,0l0,0l17.9,43.3c1,2.5,3.9,3.7,6.5,2.7c0,0,0,0,0,0l0,0l16.7-6.9c2.5-1,3.7-3.9,2.7-6.5l0,0l0,0L358.3,135l0,0
		c0.2-0.1,0.2-0.2,0.2-0.4l0,0l-2.1-5C356.3,129.4,356.1,129.3,356,129.4C356,129.4,356,129.4,356,129.4z"/>
	<path d="M351.7,121.9l17.9,43.3c0.8,1.9-0.1,4-2,4.8c0,0,0,0,0,0l-16.8,7c-1.9,0.8-4-0.1-4.8-2l-17.9-43.3c-0.8-1.9,0.1-4,2-4.8
		c0,0,0,0,0,0l2-0.8c0,1,0.8,1.8,1.8,1.7c0.2,0,0.5,0,0.7-0.1l9.6-4c0.2-0.1,0.4-0.2,0.6-0.4c0.7-0.7,0.7-1.8,0-2.5c0,0,0,0,0,0
		l2.2-0.9C348.8,119.1,350.9,120,351.7,121.9z"/>
	<path class="st2" d="M332,144.5c-0.2,0.1-0.5,0-0.6-0.2l-1.1-2.6c-0.1-0.2,0-0.5,0.2-0.6c0.2-0.1,0.5,0,0.6,0.2l1.1,2.6
		C332.3,144.2,332.2,144.4,332,144.5z"/>
	<path class="st2" d="M329.8,139.4c-0.2,0.1-0.5,0-0.6-0.2l-1.1-2.6c-0.1-0.2,0-0.5,0.2-0.6c0.2-0.1,0.5,0,0.6,0.2l0,0l1.1,2.6
		C330.1,139,330,139.3,329.8,139.4z"/>
	<path class="st5" d="M336,125c-0.1-0.2,0-0.5,0.2-0.6l2.6-1.1c0.2-0.1,0.5,0,0.6,0.2s0,0.5-0.2,0.6l-2.6,1.1
		C336.3,125.3,336,125.2,336,125z"/>
	<circle class="st5" cx="340.5" cy="123.1" r="0.4"/>
	<path d="M431.8,310.5c-0.1,0-0.1,0-0.2,0c-1.3,0-2.4-0.7-3.1-1.8c-2.5-3.8-5.7-7.2-9.2-10c-2.2-1.7-4.4-3.3-6.6-4.9
		c-5.7-4-11-7.8-13.9-13c-6.4-11.4,1.1-27.3,12-34.4c12.2-8,28.2-9.2,43.6-9.4c1.6,0,3.2,0,4.8,0l0,0c27.9,0,55.7,2.6,83.1,7.6
		c9.1,1.7,18.7,3.7,26.3,8.7c7.6,5,12.3,12.8,11.8,20c-0.7,10.4-11.7,18.2-21.8,20.3c-9.6,1.9-19.6,0.6-30.1-0.8
		c-2.3-0.3-4.7-0.6-7.1-0.9c-25.9-3-74.6,6.2-76.6,6.6l-2,0.4l-7.9,10.2C434.1,309.9,433,310.5,431.8,310.5z"/>
	<path class="st5" d="M547.2,259.6H437.7c-1.3,0-2.4-1.1-2.4-2.4c0-1.3,1.1-2.4,2.4-2.4h109.5c1.3,0,2.4,1.1,2.4,2.4
		C549.5,258.5,548.5,259.6,547.2,259.6z"/>
	<path class="st5" d="M547.2,274.2H437.7c-1.3,0-2.4-1.1-2.4-2.4c0-1.3,1.1-2.4,2.4-2.4h109.5c1.3,0,2.4,1.1,2.4,2.4
		C549.5,273.1,548.5,274.2,547.2,274.2z"/>
	<path class="st5" d="M450.5,288.8h-12.8c-1.3,0-2.4-1.1-2.4-2.4c0-1.3,1.1-2.4,2.4-2.4h12.8c1.3,0,2.4,1.1,2.4,2.4
		C452.8,287.7,451.8,288.8,450.5,288.8z"/>
	<circle class="st5" cx="433.2" cy="315.5" r="11.6"/>
	<path class="st2" d="M433.2,327.2c-6.5,0-11.7-5.2-11.7-11.7s5.2-11.7,11.7-11.7s11.7,5.2,11.7,11.7
		C444.9,322,439.7,327.2,433.2,327.2z"/>
	<path class="st5" d="M432.3,320.1C432.3,320.1,432.3,320.1,432.3,320.1c-0.5,0-0.9-0.2-1.2-0.6l-1.9-2.5c-0.5-0.7-0.4-1.6,0.3-2.1
		c0,0,0,0,0,0l0.1-0.1c0.7-0.5,1.6-0.4,2.1,0.3c0,0,0,0,0,0c0.4,0.5,1.1,0.6,1.6,0.2c0,0,0.1-0.1,0.1-0.1l3.9-4.1
		c0.6-0.6,1.5-0.6,2.1-0.1l0.1,0.1c0.6,0.6,0.6,1.5,0.1,2.1c0,0,0,0,0,0l-6.1,6.4C433.1,319.9,432.7,320.1,432.3,320.1z"/>
	<path class="st2" d="M217,165.8l-7.1-42.6c-0.3-1.8,0.9-3.5,2.7-3.8l32.2-5.3c1.8-0.3,3.5,0.9,3.8,2.7l7.1,42.6
		c0.3,1.8-0.9,3.5-2.7,3.8l-32.2,5.3C219,168.8,217.3,167.6,217,165.8z"/>
	<path class="st5" d="M217.3,152.6l-4.6-27.4c-0.3-1.7,0.9-3.3,2.5-3.6L243,117c1.7-0.3,3.3,0.9,3.6,2.5l6.3,37.9
		c0.3,1.7-0.9,3.3-2.5,3.6l-17.1,2.8C225.7,165.1,218.6,160,217.3,152.6z"/>
	<path d="M218.5,132.1c-0.3-1.6,0.8-3.2,2.5-3.5l19.2-3.2c1.6-0.3,3.2,0.8,3.5,2.5c0.3,1.6-0.8,3.2-2.5,3.5l-19.2,3.2
		C220.4,134.8,218.8,133.7,218.5,132.1z"/>
	<path d="M220.1,141.3c-0.3-1.6,0.8-3.2,2.5-3.5l19.2-3.2c1.6-0.3,3.2,0.8,3.5,2.5c0.3,1.6-0.8,3.2-2.5,3.5l0,0l-19.2,3.2
		C221.9,144.1,220.3,143,220.1,141.3z"/>
	<path d="M221.6,150.6c-0.3-1.6,0.8-3.2,2.5-3.5l19.2-3.2c1.6-0.3,3.2,0.8,3.5,2.5c0.3,1.6-0.8,3.2-2.5,3.5l-19.2,3.2
		C223.4,153.3,221.9,152.2,221.6,150.6z"/>
	<path class="st3" d="M385.1,599l0.5-11.5c5.3-2.8,11.2-4.3,17.3-4.4c-8.3,6.8-7.3,19.9-12.9,29c-3.6,5.7-9.6,9.5-16.3,10.3
		l-6.9,4.2c-1.9-10.7,0.9-21.8,7.9-30.2c1.9-2.3,4.2-4.4,6.6-6.2C382.9,594.7,385.1,599,385.1,599z"/>
	<path class="st10" d="M477.1,627.9c0,0.6-0.5,1.1-1.1,1.1c0,0,0,0,0,0H174.6c-0.6,0-1.1-0.5-1.1-1.1s0.5-1.1,1.1-1.1l0,0H476
		C476.6,626.8,477.1,627.3,477.1,627.9C477.1,627.9,477.1,627.9,477.1,627.9z"/>
	<path class="st2" d="M175.3,325.5c-5.3-0.1-34.1-0.9-38.8-0.7c-0.3-0.9-9.2,10.5-9.4,10.6c-0.5,0.5-0.5,1.3,0,1.8
		c0.1,0.1,0.2,0.2,0.4,0.3c0.5,0.3,46.8-0.5,47.4-0.4c0.5,0,0.9-0.3,1.1-0.7l0.3-0.7c0-1.2,0.4-7.2,0.1-8.3c0.3-0.6,0-1.4-0.7-1.7
		C175.7,325.6,175.5,325.5,175.3,325.5z"/>
	<path class="st11" d="M176.4,335.6c-0.3,0.7-0.6,1.5-1.5,1.4l-46.9,0.5c-0.7,0-1.3-0.6-1.3-1.3c0-0.2,0.1-0.4,0.2-0.6L176.4,335.6z
		"/>
	<path class="st2" d="M136.8,324.7c-0.5-0.9-13-62.9-14.1-63.4l-8.6-10.5l-0.8-0.6c-1.1-0.6-3.6-0.2-3.4,1.4l0,0
		c2,9.6,14.9,64.5,15.2,73.1l1.6,10.9c0.1,0.7,0.8,1.2,1.5,1.1c0,0,0.1,0,0.1,0c0.9-0.1,1.7-0.7,2.1-1.5
		C130.6,334.9,137.3,324.9,136.8,324.7z"/>
	<path class="st11" d="M114.1,250.8l16.4,84.5c-0.5,1.4-3.1,2.4-3.7,0.5c0,0-16.8-84.1-16.8-84.2
		C109.8,249.6,113.1,249.5,114.1,250.8z"/>
	<polygon points="114.6,254.2 122.9,265.8 132.2,310.1 127.9,313.9 	"/>
	<path class="st8" d="M169.9,331.5l2.3,0.1c0-0.7,0.1-1.3,0.3-2c0.3-1.6,0.7-3.6-0.8-3.6c-1-0.1-1.3,1.1-1.5,2.5
		C170.3,329.5,170.1,330.5,169.9,331.5z"/>
	<path class="st8" d="M156.7,328.4l1.6,0.1l0.7,0c0-0.8,0.4-2.5-0.6-2.9c-0.1-0.1-0.3-0.1-0.5-0.1c-0.9-0.1-1.1,0.6-1.2,1.4
		c-0.1,0.5,0,1,0,1.3C156.8,328.3,156.7,328.3,156.7,328.4z"/>
	<path class="st8" d="M152.1,328.2l1.6,0.1l0.7,0c0-0.9,0.5-3-1-3c-1.4-0.1-1.2,1.7-1.3,2.7C152.2,328.1,152.2,328.2,152.1,328.2z"
		/>
	<path class="st8" d="M147.6,328l1.6,0.1l0.7,0c0-0.9,0.5-3-1-3c-1.4-0.1-1.2,1.7-1.3,2.7C147.6,327.9,147.6,328,147.6,328z"/>
	<path class="st8" d="M143,327.9l1.6,0.1l0.7,0c0-0.9,0.5-3-1-3c-1.4-0.1-1.2,1.7-1.3,2.7C143,327.7,143,327.8,143,327.9z"/>
	<path class="st8" d="M138.4,327.7l1.6,0.1l0.7,0c0-0.9,0.4-2.7-0.7-3h0c-0.1,0-0.2,0-0.3,0c-0.1,0-0.3,0-0.4,0h0
		c-1,0.3-0.8,1.8-0.9,2.7C138.4,327.5,138.4,327.6,138.4,327.7z"/>
	<path class="st8" d="M165.3,327.2l2.3,0.1c0-0.1,0-0.2,0-0.3c0.1-0.5,0.1-1.1,0-1.7c-0.1-0.6-0.3-1.1-1.1-1.1c-0.7,0-1,0.4-1.2,1
		c0,0.1,0,0.2-0.1,0.3v0C165.3,326.2,165.3,326.8,165.3,327.2z"/>
	<path class="st8" d="M160.7,327l2.3,0.1c0-0.6,0.1-1.2,0-1.9c-0.1-0.6-0.3-1.2-1.1-1.2c-0.8-0.1-1.1,0.5-1.2,1.1
		C160.7,325.8,160.8,326.5,160.7,327z"/>
	<path class="st8" d="M156.1,326.8l0.7,0l1.6,0.1c0-0.3,0.1-0.9,0.1-1.3c0-0.1,0-0.3,0-0.4c-0.1-0.7-0.3-1.2-1.1-1.2
		c-0.8,0-1.1,0.5-1.2,1.2C156.1,325.7,156.2,326.4,156.1,326.8z"/>
	<path class="st8" d="M165.3,331.3l2.3,0.1c0-0.9,0.5-3-1-3C165.1,328.3,165.4,330.4,165.3,331.3z"/>
	<path class="st8" d="M160.8,331.1l2.3,0.1c0-0.9,0.5-3-1-3C160.5,328.1,160.8,330.2,160.8,331.1z"/>
	<path class="st8" d="M156.2,331l2.3,0.1c0-0.7,0.2-1.9-0.2-2.6c-0.2-0.3-0.5-0.5-0.9-0.5c-0.2,0-0.5,0-0.7,0.2
		C156,328.7,156.2,330.2,156.2,331z"/>
	<path class="st8" d="M151.6,330.8l2.3,0.1c0-0.7,0.2-1.9-0.2-2.6c-0.2-0.3-0.5-0.5-0.9-0.5c-0.2,0-0.5,0-0.7,0.2
		C151.4,328.5,151.6,330,151.6,330.8z"/>
	<path class="st8" d="M147,330.6l2.3,0.1c0-0.7,0.2-1.9-0.2-2.6c-0.2-0.3-0.5-0.5-0.9-0.5c-0.2,0-0.5,0-0.7,0.2
		C146.8,328.3,147,329.8,147,330.6z"/>
	<path class="st8" d="M142.4,330.4l2.3,0.1c0-0.7,0.2-1.9-0.2-2.6c-0.2-0.3-0.5-0.5-0.9-0.5c-0.2,0-0.5,0-0.7,0.2
		C142.2,328.1,142.5,329.6,142.4,330.4z"/>
	<path class="st8" d="M137.8,330.2l2.3,0.1c0-0.7,0.2-1.9-0.2-2.6c-0.2-0.3-0.5-0.5-0.9-0.5c-0.2,0-0.5,0-0.7,0.2
		C137.6,327.9,137.9,329.5,137.8,330.2z"/>
</g>
</svg>
