<svg id="Layer_1" data-name="Layer 1" xmlns="http://www.w3.org/2000/svg" xmlns:xlink="http://www.w3.org/1999/xlink" viewBox="0 0 596.2 363.91"><defs><style>.cls-1{fill:url(#linear-gradient);}.cls-2{fill:#ccc;}.cls-3{fill:#f2f2f2;}.cls-4{fill:#3f3d56;}.cls-5{fill:#fff;}.cls-6{fill:#e6e6e6;}.cls-7{fill:#ffb6b6;}.cls-8{fill:#e4e4e4;}.cls-9{fill:#2f2e41;}</style><linearGradient id="linear-gradient" x1="-638.15" y1="248.79" x2="-286.33" y2="248.79" gradientTransform="matrix(0.93, -0.7, -0.89, -1.19, 974.18, 174.4)" gradientUnits="userSpaceOnUse"><stop offset="0" stop-color="#e67e22"/><stop offset="1" stop-color="#eb3349"/></linearGradient></defs><g id="Layer_2" data-name="Layer 2"><path class="cls-1" d="M204.4,62a41.39,41.39,0,0,0-15.6,4.5c-14.4,7.6-23.1,24.2-22.4,43,.8,24,15.8,48.9,34.1,67.8,10.6,10.9,23.4,22.2,26.1,36.3,2.2,11.6-3.3,21.3-9.5,29.1-17.8,22.6-43.7,41.4-44.2,74-.4,22.1,12.1,46.5,29.7,63.4C252.1,428,334,421.9,337.8,354.5c1-18.2-4.2-37.6-6.4-56.4s-1-38.9,10.8-49.8c14.8-13.8,40.9-8.3,62.7,2.6s42.6,26.8,65,33.5a87.32,87.32,0,0,0,58-2.9c17.5-7.2,32.9-20.4,37.4-40.3,5.3-23.3-4.9-51.3-18.3-75.7A326.08,326.08,0,0,0,475.9,77c-18.5-16.1-40.6-30.5-61.4-29.5-18.2.9-31.4,13.1-44.7,22.9a205.43,205.43,0,0,1-49,26.6c-11.4,4.3-24.1,7.7-37.4,3.2-15.7-5.3-28.5-20.4-43.4-29.4C228.6,63.9,215.9,60.9,204.4,62Z" transform="translate(-26.7 -47.45)"/></g><g id="Layer_1-2" data-name="Layer 1"><path class="cls-2" d="M564.4,211H214.7a5.6,5.6,0,1,0,0,11.2h9.9V356.1a5.6,5.6,0,1,0,11.2,0l.1-133.9H516.6l25.9,133.9a5.6,5.6,0,0,0,11.2,0l1.6-133.9h9.1a5.6,5.6,0,1,0,0-11.2Z" transform="translate(-26.7 -47.45)"/><path class="cls-3" d="M275.3,186.1v23.7H215.9a11.86,11.86,0,0,1-.9-23.7h60.3Z" transform="translate(-26.7 -47.45)"/><path d="M276.8,209.6a.9.9,0,0,1-.9.9h-61a12.5,12.5,0,1,1,0-25h61a.9.9,0,0,1,0,1.8h-61a10.7,10.7,0,0,0,0,21.4h61A.9.9,0,0,1,276.8,209.6Z" transform="translate(-26.7 -47.45)"/><path class="cls-2" d="M275.3,191.5H211.5a.2.2,0,0,1,0-.4h63.8a.22.22,0,0,1,.2.2C275.5,191.5,275.4,191.5,275.3,191.5Z" transform="translate(-26.7 -47.45)"/><path class="cls-2" d="M275.3,195.9H211.5a.2.2,0,0,1,0-.4h63.8a.2.2,0,0,1,0,.4Z" transform="translate(-26.7 -47.45)"/><path class="cls-2" d="M275.3,200.3H211.5a.2.2,0,0,1,0-.4h63.8a.2.2,0,0,1,0,.4Z" transform="translate(-26.7 -47.45)"/><path class="cls-2" d="M275.3,204.7H211.5a.2.2,0,0,1,0-.4h63.8a.2.2,0,0,1,0,.4Z" transform="translate(-26.7 -47.45)"/><path class="cls-3" d="M264.1,161.1v23.7H204.7a11.86,11.86,0,0,1-.9-23.7h60.3Z" transform="translate(-26.7 -47.45)"/><path class="cls-4" d="M265.6,184.6a.9.9,0,0,1-.9.9h-61a12.5,12.5,0,0,1,0-25h61a.9.9,0,0,1,0,1.8h-61a10.7,10.7,0,0,0,0,21.4h61A.9.9,0,0,1,265.6,184.6Z" transform="translate(-26.7 -47.45)"/><path class="cls-2" d="M264.1,166.6H200.3a.2.2,0,0,1,0-.4h63.8a.2.2,0,0,1,0,.4Z" transform="translate(-26.7 -47.45)"/><path class="cls-2" d="M264.1,170.9H200.3a.2.2,0,1,1,0-.4h63.8a.22.22,0,0,1,.2.2C264.3,170.9,264.2,170.9,264.1,170.9Z" transform="translate(-26.7 -47.45)"/><path class="cls-2" d="M264.1,175.3H200.3a.2.2,0,1,1,0-.4h63.8a.2.2,0,0,1,0,.4Z" transform="translate(-26.7 -47.45)"/><path class="cls-2" d="M264.1,179.7H200.3a.2.2,0,1,1,0-.4h63.8a.2.2,0,0,1,0,.4Z" transform="translate(-26.7 -47.45)"/><path class="cls-2" d="M333.2,294.9V274.2a3.37,3.37,0,0,0-3.4-3.4H251.4a3.37,3.37,0,0,0-3.4,3.4v20.7Z" transform="translate(-26.7 -47.45)"/><rect class="cls-2" x="221.3" y="255.25" width="85.3" height="26.7"/><path class="cls-2" d="M248,337.1v20.7a3.37,3.37,0,0,0,3.4,3.4h78.4a3.37,3.37,0,0,0,3.4-3.4V337.1Z" transform="translate(-26.7 -47.45)"/><circle class="cls-5" cx="263.5" cy="236.25" r="2.6"/><circle class="cls-5" cx="263.5" cy="270.75" r="2.6"/><circle class="cls-5" cx="263.6" cy="304.45" r="2.6"/><path class="cls-3" d="M323.6,247.2v23.7H264.2a11.86,11.86,0,0,1-.9-23.7h60.3Z" transform="translate(-26.7 -47.45)"/><path class="cls-4" d="M325,270.8a.9.9,0,0,1-.9.9h-61a12.5,12.5,0,0,1,0-25h61a.9.9,0,0,1,0,1.8h-61a10.7,10.7,0,0,0,0,21.4h61C324.6,269.8,325,270.3,325,270.8Z" transform="translate(-26.7 -47.45)"/><path class="cls-2" d="M323.6,252.7H259.8a.2.2,0,0,1,0-.4h63.8a.22.22,0,0,1,.2.2c-.1.1-.1.2-.2.2Z" transform="translate(-26.7 -47.45)"/><path class="cls-2" d="M323.6,257.1H259.8a.2.2,0,1,1,0-.4h63.8a.22.22,0,0,1,.2.2c-.1.1-.1.2-.2.2Z" transform="translate(-26.7 -47.45)"/><path class="cls-2" d="M323.6,261.5H259.8a.2.2,0,0,1,0-.4h63.8a.22.22,0,0,1,.2.2c-.1.1-.1.2-.2.2Z" transform="translate(-26.7 -47.45)"/><path class="cls-2" d="M323.6,265.8H259.8a.2.2,0,0,1,0-.4h63.8a.22.22,0,0,1,.2.2c-.1.2-.1.2-.2.2Z" transform="translate(-26.7 -47.45)"/><path class="cls-4" d="M253.8,153.2H226.7a1.45,1.45,0,0,0-.7.2l-6.8,3.4a1.35,1.35,0,0,0-.7,1.6,1.58,1.58,0,0,0,.7.7l6.8,3.4a1.85,1.85,0,0,0,.7.2h27.1a1.43,1.43,0,0,0,1.5-1.3v-6.8A1.38,1.38,0,0,0,253.8,153.2Z" transform="translate(-26.7 -47.45)"/><path d="M255.3,154.5v6.8a1.37,1.37,0,0,1-1.5,1.3h-5.4v-9.5h5.4A1.52,1.52,0,0,1,255.3,154.5Z" transform="translate(-26.7 -47.45)"/><path class="cls-6" d="M91.5,287.2a21.45,21.45,0,0,0,20.8-3.7c7.3-6.1,9.6-16.2,11.4-25.5s3.7-18.4,5.5-27.6l-11.5,7.9c-8.3,5.7-16.7,11.6-22.4,19.8s-8.2,19.5-3.6,28.4" transform="translate(-26.7 -47.45)"/><path class="cls-3" d="M92.5,320.6c-1.2-8.5-2.4-17.1-1.5-25.6.7-7.6,3-15,7.8-21.1a37,37,0,0,1,9-8.2c.9-.6,1.7.9.8,1.4A33.61,33.61,0,0,0,95.4,283c-2.9,7.3-3.3,15.3-2.8,23.1.3,4.7.9,9.4,1.6,14a.8.8,0,0,1-.6,1,.89.89,0,0,1-1.1-.5Z" transform="translate(-26.7 -47.45)"/><path class="cls-6" d="M103.7,305.6a15.85,15.85,0,0,0,13.8,7.1c7-.3,12.8-5.2,18-9.8L151,289.2l-10.3-.5c-7.4-.4-14.9-.7-22,1.6s-13.5,7.8-14.8,15" transform="translate(-26.7 -47.45)"/><path class="cls-3" d="M89.2,325.4c5.6-9.9,12.1-20.9,23.7-24.4a25.88,25.88,0,0,1,10-1c1.1.1.8,1.7-.3,1.6a24.39,24.39,0,0,0-15.9,4.2,40.87,40.87,0,0,0-10.9,11.8c-1.8,2.8-3.4,5.6-5.1,8.5-.5.9-2,.3-1.5-.7Z" transform="translate(-26.7 -47.45)"/><path class="cls-3" d="M80.3,335.9a11.88,11.88,0,0,1,7.3-10v-5.7h9.6v5.9a11.9,11.9,0,0,1,6.9,9.9l2.3,26.3H78Z" transform="translate(-26.7 -47.45)"/><path class="cls-6" d="M406.9,210.5l-2.9-1.2L402,195H376l-2.1,14.3-2.6,1.3a.63.63,0,0,0-.3.8.55.55,0,0,0,.5.3h35.1a.65.65,0,0,0,.6-.6A.42.42,0,0,0,406.9,210.5Z" transform="translate(-26.7 -47.45)"/><path class="cls-2" d="M453.3,196.9H325.1a2.48,2.48,0,0,1-2.5-2.5V176.3H455.9v18.1A2.63,2.63,0,0,1,453.3,196.9Z" transform="translate(-26.7 -47.45)"/><path class="cls-4" d="M456,184.8H322.4V107.4a3.12,3.12,0,0,1,3.1-3.1H452.9a3.12,3.12,0,0,1,3.1,3.1Z" transform="translate(-26.7 -47.45)"/><path class="cls-5" d="M448,179.2H330.4a2.43,2.43,0,0,1-2.4-2.4V112.3a2.43,2.43,0,0,1,2.4-2.4H448a2.43,2.43,0,0,1,2.4,2.4v64.5A2.43,2.43,0,0,1,448,179.2Z" transform="translate(-26.7 -47.45)"/><path class="cls-7" d="M417,201.9a7.1,7.1,0,0,1,10,.4,8.74,8.74,0,0,1,.8,1l15.9-2.8,4.1,9.2-22.5,3.7a7.14,7.14,0,0,1-8.3-11.5Z" transform="translate(-26.7 -47.45)"/><path d="M431.8,213.7l16.6-.2h2.1l33.7-.4s9.2-8.7,17.1-17.7l-1.1-8.1a33.21,33.21,0,0,0-11.1-20.5c-11.4,7.6-18.1,22.7-18.1,22.7l-20.9,5-2.1.5-13,3.1Z" transform="translate(-26.7 -47.45)"/><path class="cls-8" d="M516.7,263.4h-31c0,1.3-33.8,2.4-33.8,2.4a18,18,0,0,0-2,1.9,12.15,12.15,0,0,0-2.8,7.7v1.9a12,12,0,0,0,12,12h57.6a12,12,0,0,0,12-12v-1.9A12,12,0,0,0,516.7,263.4Z" transform="translate(-26.7 -47.45)"/><rect class="cls-8" x="455" y="241.45" width="12.5" height="72.1"/><path class="cls-8" d="M446.1,360.6c0,1.4,18.9.5,42.3.5s42.3.8,42.3-.5-18.9-12.1-42.3-12.1S446.1,359.2,446.1,360.6Z" transform="translate(-26.7 -47.45)"/><polygon class="cls-7" points="411 304.95 401.7 304.95 397.3 269.05 411 269.05 411 304.95"/><path class="cls-9" d="M440.1,361.4h-30V361a11.71,11.71,0,0,1,11.7-11.7h18.3Z" transform="translate(-26.7 -47.45)"/><polygon class="cls-7" points="383.5 304.95 374.2 304.95 369.8 269.05 383.5 269.05 383.5 304.95"/><path class="cls-9" d="M412.6,361.4h-30V361a11.71,11.71,0,0,1,11.7-11.7h18.3Z" transform="translate(-26.7 -47.45)"/><circle class="cls-7" cx="466.8" cy="82.25" r="16.2"/><path class="cls-9" d="M519.7,240.5s5.4,28.7-15.2,32.3-50.4,6.2-50.4,6.2l-13.4,62.4-18-1.6s2.4-75.2,8.3-81,43-23.5,43-23.5Z" transform="translate(-26.7 -47.45)"/><path class="cls-9" d="M479.4,228.4l-9,9.1s-65.2,10.5-67.7,25.6c-3.8,22.7-8.3,72.2-8.3,72.2l19.6-1.5,7.7-56.2,31.4-7.1,35.7-19.4Z" transform="translate(-26.7 -47.45)"/><path class="cls-9" d="M509.1,120c-1.6-3-3.6-9-6.8-10.1a25.71,25.71,0,0,0-5.5-1.2l-5.5,2.1,3-2.3c-.6,0-1.2-.1-1.7-.1l-3.7,1.4,1.9-1.5c-3.4,0-7,.3-9.7,2.4-2.3,1.8-4.5,8.6-4.9,11.4a20.65,20.65,0,0,0,.4,8.2l.9.9a10.1,10.1,0,0,0,.7-2.3,11.37,11.37,0,0,1,5.3-7.2h.1c1.6-.9,3.5-.8,5.3-.8l8.5.3c2.1.1,4.3.2,5.9,1.5a9.76,9.76,0,0,1,2.3,3.4,73.41,73.41,0,0,1,2.4,7.7s.9-1.1,1.3-.3a26.24,26.24,0,0,0,1.2-6.8A14.18,14.18,0,0,0,509.1,120Z" transform="translate(-26.7 -47.45)"/><path class="cls-7" d="M565.6,136.8a7.12,7.12,0,0,0-6.6,7.5,5,5,0,0,0,.2,1.2l-13,9.6,3.9,9.3,18.2-13.8a7.08,7.08,0,0,0-2.7-13.8Z" transform="translate(-26.7 -47.45)"/><path d="M563.5,156.4l-32.6,36.2s-15.6-5-27.6-10.4l-5.4-16.6a32.57,32.57,0,0,1-1.6-12c16.7-4.4,36.1,12.1,36.1,12.1l24.4-19.1Z" transform="translate(-26.7 -47.45)"/><path d="M487.5,243.1c-5.8-2-11.8-4.1-18.3-4.9h-.3l.1-.3c6.7-23.6,5-38.7,1.7-61.3a22.89,22.89,0,0,1,13.1-24h0l18.5-1.2h0l13.5,4a9.21,9.21,0,0,1,6.6,9c-.1,7.4.2,15.8.5,24.6.7,19.8,1.5,40.2-2.8,53.4v.1H520a21.74,21.74,0,0,1-14,4.9C500,247.5,493.9,245.3,487.5,243.1Z" transform="translate(-26.7 -47.45)"/><path class="cls-2" d="M622,362.9H27.6a.9.9,0,0,1,0-1.8H622a.9.9,0,0,1,.9.9A1.06,1.06,0,0,1,622,362.9Z" transform="translate(-26.7 -47.45)"/></g></svg>