<svg id="Layer_1" data-name="Layer 1" xmlns="http://www.w3.org/2000/svg" xmlns:xlink="http://www.w3.org/1999/xlink" viewBox="0 0 254.63 257.21"><defs><style>.cls-1{fill:url(#linear-gradient);}.cls-2{fill:url(#linear-gradient-2);}.cls-3{fill:#fff;}.cls-4{fill:#231f20;}</style><linearGradient id="linear-gradient" x1="-44.72" y1="41.1" x2="108.59" y2="41.1" gradientTransform="matrix(1.25, -0.94, -1.25, -1.66, 187.83, 223.77)" gradientUnits="userSpaceOnUse"><stop offset="0" stop-color="#e67e22"/><stop offset="1" stop-color="#eb3349"/></linearGradient><linearGradient id="linear-gradient-2" x1="-45.34" y1="41.56" x2="107.97" y2="41.56" xlink:href="#linear-gradient"/></defs><g id="Layer_2" data-name="Layer 2"><path class="cls-1" d="M104.7,40.31a24,24,0,0,0-9.2,2.53C87,47.24,82,57.13,82.6,68.47c.74,14.46,9.94,29.54,21,41.09,6.4,6.67,14.16,13.55,15.9,22.09,1.44,7-1.74,12.77-5.31,17.39-10.38,13.42-25.58,24.4-25.58,44,0,13.29,7.66,28,18.3,38.44,29.94,29.24,78.65,26.45,80.18-14,.44-10.9-2.88-22.62-4.4-34s-1-23.36,5.93-29.85c8.67-8.15,24.27-4.62,37.34,2.18s25.62,16.51,39,20.78a50.8,50.8,0,0,0,34.47-1.17c10.37-4.14,19.35-11.9,21.88-23.84,2.92-13.94-3.44-30.85-11.64-45.67A204.68,204.68,0,0,0,266.5,52.08C255.34,42.19,242,33.34,229.67,33.73c-10.85.35-18.56,7.54-26.36,13.3a115.47,115.47,0,0,1-28.89,15.46C167.66,65,160.13,66.85,152.19,64c-9.36-3.36-17.16-12.55-26.14-18.08C119.12,41.75,111.49,39.79,104.7,40.31Z" transform="translate(-70.53 -21.46)"/><path class="cls-2" d="M103.34,40.14a23.73,23.73,0,0,0-9.19,2.53c-8.5,4.4-13.51,14.29-12.9,25.62.74,14.47,9.94,29.55,21,41.09,6.41,6.67,14.17,13.56,15.91,22.1,1.44,7-1.74,12.77-5.32,17.39-10.37,13.42-25.58,24.4-25.58,44,0,13.29,7.67,28,18.31,38.43,29.93,29.24,78.65,26.46,80.18-14,.43-10.89-2.88-22.61-4.4-33.95s-1-23.35,5.92-29.85c8.68-8.14,24.28-4.61,37.35,2.18s25.62,16.52,39,20.79a50.74,50.74,0,0,0,34.47-1.18c10.37-4.14,19.35-11.89,21.88-23.83,2.92-13.95-3.45-30.86-11.64-45.67a204.52,204.52,0,0,0-43.18-53.86C254,42,240.66,33.17,228.32,33.56c-10.85.35-18.56,7.54-26.36,13.29a115.18,115.18,0,0,1-28.89,15.47c-6.76,2.48-14.3,4.36-22.23,1.53-9.37-3.36-17.17-12.55-26.14-18.09C117.77,41.53,110.19,39.57,103.34,40.14Z" transform="translate(-70.53 -21.46)"/></g><g id="_572_team_success_flatline" data-name=" 572 team success flatline"><polygon class="cls-3" points="13.48 128.09 38.82 142.83 26.15 165.05 0.52 150.19 13.48 128.09"/><path class="cls-4" d="M96.68,187a.52.52,0,0,1-.27-.07L70.79,172.1a.5.5,0,0,1-.2-.69v0l13-22.1a.53.53,0,0,1,.71-.19h0l25.37,14.74a.52.52,0,0,1,.19.71L97.14,186.77a.59.59,0,0,1-.33.25ZM71.77,171.46l24.72,14.33,12.18-21.31L84.24,150.27Z" transform="translate(-70.53 -21.46)"/><path class="cls-4" d="M109.22,257.72a39.17,39.17,0,0,0-3.14,7.18c-1.07,3.54,1.07,8.61,2.58,10a4.48,4.48,0,0,0,5.55-.06c1.65-1.45,0-15.38,0-15.38Z" transform="translate(-70.53 -21.46)"/><path class="cls-4" d="M111.3,276.32a4.44,4.44,0,0,1-3-1.07c-1.62-1.48-3.84-6.79-2.71-10.49a37.83,37.83,0,0,1,3.21-7.32.52.52,0,0,1,.59-.2l4.92,1.72a.49.49,0,0,1,.33.41c.42,3.33,1.62,14.31-.11,15.83A5.12,5.12,0,0,1,111.3,276.32Zm-1.84-18a38,38,0,0,0-2.89,6.72c-1,3.27,1,8.12,2.43,9.44a4,4,0,0,0,4.88-.07c.91-.78.62-8-.18-14.62Z" transform="translate(-70.53 -21.46)"/><path class="cls-3" d="M125.44,206.9a61.09,61.09,0,0,0-10.47,21c-3.24,12.18-5,28.95-5.15,29.52s-3.23,5.91-1.09,6.91,4.28,1.58,5.43-4.86c0,0,22.14-44.15,23-49.44S125.44,206.9,125.44,206.9Z" transform="translate(-70.53 -21.46)"/><path class="cls-4" d="M110.82,265.43a5.73,5.73,0,0,1-2.32-.66,1.71,1.71,0,0,1-.91-1c-.53-1.47.47-3.88,1.5-6,.12-.25.21-.42.24-.5s.15-1.09.29-2.19c.68-5.28,2.27-17.63,4.84-27.31A62.19,62.19,0,0,1,125,206.57a.55.55,0,0,1,.31-.18c.37-.06,8.89-1.51,11.55,1.12a2.79,2.79,0,0,1,.77,2.57c-.85,5.26-21.71,46.94-23,49.54-.55,3.12-1.41,4.89-2.65,5.54A2.55,2.55,0,0,1,110.82,265.43Zm14.91-58.05A61.32,61.32,0,0,0,115.47,228c-2.55,9.61-4.13,21.91-4.81,27.17-.24,1.86-.29,2.24-.34,2.4s-.14.31-.28.61c-.53,1.09-1.91,4-1.47,5.22a.7.7,0,0,0,.38.43c1.09.51,1.89.75,2.56.4.92-.48,1.64-2.12,2.13-4.88a.34.34,0,0,1,0-.14c.22-.44,22.12-44.14,22.95-49.29a1.78,1.78,0,0,0-.48-1.67c-1.83-1.81-8-1.26-10.43-.86Z" transform="translate(-70.53 -21.46)"/><path class="cls-4" d="M196.46,257.72a38.5,38.5,0,0,1,3.14,7.18c1.08,3.54-1.07,8.61-2.57,10a4.48,4.48,0,0,1-5.55-.06c-1.66-1.45,0-15.38,0-15.38Z" transform="translate(-70.53 -21.46)"/><path class="cls-4" d="M194.38,276.3a5.08,5.08,0,0,1-3.24-1.1c-1.72-1.52-.52-12.5-.11-15.83a.5.5,0,0,1,.34-.41l4.92-1.72a.52.52,0,0,1,.59.2,40,40,0,0,1,3.21,7.32c1.12,3.7-1.1,9-2.72,10.49A4.47,4.47,0,0,1,194.38,276.3ZM192,259.81c-.8,6.63-1.09,13.84-.19,14.62a4,4,0,0,0,4.89.07c1.42-1.29,3.42-6.17,2.42-9.44a38.79,38.79,0,0,0-2.89-6.72Z" transform="translate(-70.53 -21.46)"/><path class="cls-3" d="M180.24,206.9a61.12,61.12,0,0,1,10.48,21c3.24,12.18,4.95,28.95,5.14,29.52s3.24,5.91,1.1,6.91-4.28,1.58-5.43-4.86c0,0-22.15-44.15-23-49.44S180.24,206.9,180.24,206.9Z" transform="translate(-70.53 -21.46)"/><path class="cls-4" d="M194.88,265.43a2.44,2.44,0,0,1-1.18-.28c-1.25-.65-2.1-2.42-2.67-5.54-1.3-2.6-22.16-44.28-23-49.54a2.84,2.84,0,0,1,.78-2.57c2.66-2.63,11.17-1.18,11.56-1.12a.55.55,0,0,1,.31.18,62.19,62.19,0,0,1,10.58,21.16c2.56,9.68,4.16,22,4.84,27.31.14,1.1.26,2,.29,2.21l.24.48c1,2.15,2,4.55,1.5,6a1.79,1.79,0,0,1-.92,1A5.51,5.51,0,0,1,194.88,265.43ZM175,207c-2.23,0-4.44.29-5.42,1.26a1.78,1.78,0,0,0-.49,1.67c.84,5.15,22.73,48.85,23,49.29a.78.78,0,0,1,.05.14c.49,2.76,1.21,4.4,2.13,4.88.67.35,1.47.11,2.56-.4a.69.69,0,0,0,.37-.43c.45-1.26-.94-4.13-1.46-5.22-.1-.2-.2-.4-.28-.61s-.1-.54-.35-2.4c-.67-5.26-2.25-17.56-4.81-27.17A61.3,61.3,0,0,0,180,207.38a32.47,32.47,0,0,0-5-.4Z" transform="translate(-70.53 -21.46)"/><path class="cls-4" d="M132.87,148.22c0,.57-8,41.53-9.52,59.82,0,0,31.24,16.39,59.83-1.14,0,0-6.49-26.29-6.67-32.39s-3.25-22.1-7.62-28.77Z" transform="translate(-70.53 -21.46)"/><path class="cls-4" d="M153.84,215.45a73.72,73.72,0,0,1-30.73-7,.49.49,0,0,1-.26-.49c1.22-14.8,6.68-44.36,8.74-55.5.44-2.39.77-4.12.78-4.31a.53.53,0,0,1,.47-.48l36-2.47a.46.46,0,0,1,.45.22c4.43,6.74,7.51,22.62,7.71,29,.19,6,6.58,32,6.65,32.27a.53.53,0,0,1-.22.56A55.83,55.83,0,0,1,153.84,215.45Zm-30-7.71c3.25,1.58,32.27,14.89,58.72-1.08-.81-3.31-6.42-26.39-6.6-32.13-.19-6.09-3.21-21.63-7.38-28.27l-35.31,2.44c-.09.51-.28,1.61-.73,4C130.55,163.72,125.16,192.89,123.88,207.74Z" transform="translate(-70.53 -21.46)"/><path class="cls-3" d="M188.79,59.69l2.41-6.52s-1.12-2.56.13-4.48,2-3.55,3-3,6.09,3.24,5.27,6.42-3,3.61-3,3.61a53.23,53.23,0,0,1-4,8.64Z" transform="translate(-70.53 -21.46)"/><path class="cls-4" d="M192.6,64.91a.53.53,0,0,1-.41-.19L188.36,60a.57.57,0,0,1-.08-.52l2.34-6.33a5.64,5.64,0,0,1,.25-4.78l.5-.78c1-1.67,2-3.11,3.24-2.34l.3.18c1.49.86,6,3.5,5.2,6.81a5.09,5.09,0,0,1-3.13,3.9,54.27,54.27,0,0,1-3.92,8.52.49.49,0,0,1-.41.27Zm-3.23-5.29,3.15,3.87a51.5,51.5,0,0,0,3.55-7.87.51.51,0,0,1,.4-.35c.07,0,1.91-.43,2.62-3.22.65-2.55-3.38-4.88-4.71-5.66l-.32-.19c-.39-.23-1.11.91-1.8,2-.17.26-.33.53-.52.8-1.07,1.65-.09,4-.08,4a.53.53,0,0,1,0,.39Z" transform="translate(-70.53 -21.46)"/><path class="cls-3" d="M193.79,47.05a9.27,9.27,0,0,1,3.63,3.23.81.81,0,0,1,.17.54c0,.23-.28.37-.5.47a1.67,1.67,0,0,1-1,.24,1.58,1.58,0,0,1-.6-.24,10.45,10.45,0,0,1-2-1.6,1.89,1.89,0,0,1-.84,3.32" transform="translate(-70.53 -21.46)"/><path class="cls-4" d="M192.71,53.53a.52.52,0,0,1-.51-.43.53.53,0,0,1,.42-.62,1.37,1.37,0,0,0,1-1,1.4,1.4,0,0,0-.27-1.2l-.24-.23a.53.53,0,0,1,0-.74.51.51,0,0,1,.73,0h0c.11.09.21.19.31.29a9.86,9.86,0,0,0,1.63,1.26,1.18,1.18,0,0,0,.4.17,1.37,1.37,0,0,0,.65-.2.78.78,0,0,0,.2-.11l-.08-.13a8.74,8.74,0,0,0-3.42-3,.52.52,0,0,1-.16-.73.53.53,0,0,1,.62-.21A9.64,9.64,0,0,1,197.8,50a1.2,1.2,0,0,1,.25.93,1.28,1.28,0,0,1-.77.82,1.76,1.76,0,0,1-2,0l-.51-.33a2,2,0,0,1-.06.35,2.49,2.49,0,0,1-1.83,1.78Z" transform="translate(-70.53 -21.46)"/><path class="cls-3" d="M102.21,142l-1.09,8.53c-.07.53,1.08,2.2,1.23,2.84.41,1.85.47,3.9.72,5.79,0,.28.06.64-.17.81s-.69,0-1-.25l-2.38-1.93a48,48,0,0,0-3,6.45c-2,.47-3.92-.85-5.33-2.31a2.06,2.06,0,0,1-.4-.52,2.28,2.28,0,0,1-.16-.74c-.37-3.4-.77-10,3.25-11.74a64.7,64.7,0,0,1,2.39-11.53Z" transform="translate(-70.53 -21.46)"/><path class="cls-4" d="M95.71,164.81a7.12,7.12,0,0,1-4.88-2.55,2.38,2.38,0,0,1-.48-.66,2.58,2.58,0,0,1-.22-.91c-.26-2.48-1-9.93,3.28-12.18a68.3,68.3,0,0,1,2.38-11.31.5.5,0,0,1,.34-.36.55.55,0,0,1,.48.08l5.93,4.6a.57.57,0,0,1,.2.49s-1.1,8.49-1.1,8.53a7.32,7.32,0,0,0,.6,1.3,6.4,6.4,0,0,1,.62,1.36,33.08,33.08,0,0,1,.51,3.71c.06.72.13,1.43.22,2.12a1.31,1.31,0,0,1-.37,1.3c-.26.19-.81.4-1.62-.27l-1.9-1.53A51.22,51.22,0,0,0,97,164.36a.51.51,0,0,1-.36.32A3.82,3.82,0,0,1,95.71,164.81Zm.87-26.56a62.77,62.77,0,0,0-2.19,10.69.55.55,0,0,1-.31.44c-2.66,1.15-3.62,4.83-2.94,11.21a1.81,1.81,0,0,0,.12.56,1.27,1.27,0,0,0,.3.39c.93,1,2.71,2.47,4.56,2.21a50.87,50.87,0,0,1,2.94-6.25.53.53,0,0,1,.36-.26.55.55,0,0,1,.44.11l2.37,1.94a1.48,1.48,0,0,0,.34.21v-.3c-.1-.7-.17-1.43-.24-2.16a28.61,28.61,0,0,0-.48-3.57,6.25,6.25,0,0,0-.52-1.11,4.06,4.06,0,0,1-.72-1.93c0-.07.87-6.74,1-8.23Z" transform="translate(-70.53 -21.46)"/><path d="M144.31,95.41a3,3,0,0,0-.68-.23c-1.73-.38-4.42,1.71-5.88,2.75a9,9,0,0,0-3.16,4.65,40.3,40.3,0,0,0-1.44,7.46c-1.62,13.19-1.62,26.79-2.42,40.09,0,0,11.07,8,20.3,6.71s20.82-6.57,20.82-6.57-3.24-36.86-3.36-42.45c0,0,5.85-7.85,12.85-17.57s13.48-28.6,13.48-28.6l-6.09-4.14s-20.82,33.06-24.44,36.15c-3.46,3-8.58,3.82-13,3.58a24.61,24.61,0,0,1-4.69-.72A16.23,16.23,0,0,1,144.31,95.41Z" transform="translate(-70.53 -21.46)"/><path class="cls-3" d="M139,91.49a3.87,3.87,0,0,1-1.61-1.87,3.7,3.7,0,0,1,.29-1.77c2-6.09,1.63-13.06,5.08-18.48a5.09,5.09,0,0,1,1.73-1.84,2.27,2.27,0,0,1,2.43,0c3-5.17,10.53-1.47,12.65,2.69,2.24,4.4,3.56,9.46,5.22,14.11a10,10,0,0,1,.88,4.45,3.47,3.47,0,0,1-2.77,3.2L162,90.57a1.08,1.08,0,0,1-.13,1.53h0a3.13,3.13,0,0,1-1.5.69c-5.37,1.35-11.16,2.44-16.36.59-.8-.29-1.75-1-1.43-1.79C142.1,93,140.32,92.45,139,91.49Z" transform="translate(-70.53 -21.46)"/><path class="cls-4" d="M150.22,94.86a18.84,18.84,0,0,1-6.32-1,3.31,3.31,0,0,1-1.57-1.11,1.31,1.31,0,0,1-.27.12c-1.27.43-2.89-.62-3.37-.94h0c-.38-.27-1.64-1.22-1.83-2.21a3.91,3.91,0,0,1,.29-1.94,48.35,48.35,0,0,0,1.63-7.32c.66-3.9,1.35-7.94,3.5-11.36a5.86,5.86,0,0,1,1.93-2,2.93,2.93,0,0,1,2.5-.21,5.37,5.37,0,0,1,4.79-2.36A10.93,10.93,0,0,1,160,70a69.87,69.87,0,0,1,3.79,9.94c.47,1.42.93,2.83,1.43,4.21a10.43,10.43,0,0,1,.89,4.7,4,4,0,0,1-3.24,3.66.55.55,0,0,1-.48-.22l-.13.15a3.71,3.71,0,0,1-1.74.83A43.2,43.2,0,0,1,150.22,94.86Zm-7.11-3a.45.45,0,0,0,0,.23,2.05,2.05,0,0,0,1.11.81c5,1.77,10.68.75,16.07-.6a2.62,2.62,0,0,0,1.25-.55.79.79,0,0,0,.22-.51h0l-.16-.3a.51.51,0,0,1,.13-.72.52.52,0,0,1,.68.08,1.46,1.46,0,0,1,.34.54l.37.67a3.13,3.13,0,0,0,2-2.68,10,10,0,0,0-.84-4.22c-.5-1.39-1-2.81-1.44-4.24a70.15,70.15,0,0,0-3.77-9.81,9.81,9.81,0,0,0-7.6-4.92,4.41,4.41,0,0,0-4.13,2.27.56.56,0,0,1-.35.25.51.51,0,0,1-.41-.1,1.81,1.81,0,0,0-1.85,0,4.85,4.85,0,0,0-1.65,1.63c-2,3.25-2.68,7-3.35,11A50.89,50.89,0,0,1,138.13,88a3.41,3.41,0,0,0-.28,1.51,3.48,3.48,0,0,0,1.41,1.53h0a3.35,3.35,0,0,0,2.42.81.61.61,0,0,0,.4-.4v-.1a.54.54,0,0,1,.69-.33.53.53,0,0,1,.32.69A.14.14,0,0,1,143.11,91.82Z" transform="translate(-70.53 -21.46)"/><path class="cls-3" d="M153.17,106.18l-.2.17a1.71,1.71,0,0,1-1.86.19,2.49,2.49,0,0,1-.67-.74c-2.17-3.11-3.63-6.35-3-10.23v-.11l-.1-1.31-.27-3.61V89.25l.33-4,8.39.09.3,4.89v.31l.19,3.13.1,1.72v.07a19.57,19.57,0,0,1-2.35,9.32A5.24,5.24,0,0,1,153.17,106.18Z" transform="translate(-70.53 -21.46)"/><path class="cls-4" d="M151.83,107.26a1.82,1.82,0,0,1-1-.28,3,3,0,0,1-.82-.87c-1.82-2.62-3.81-6.18-3.05-10.62l-.36-4.91.09-1.37.32-4a.52.52,0,0,1,.53-.48l8.39.08a.54.54,0,0,1,.52.5l.29,4.89v.11l.29,5.08a19.82,19.82,0,0,1-2.41,9.65,5.21,5.21,0,0,1-1.08,1.55l-.24.22A2.62,2.62,0,0,1,151.83,107.26ZM148,85.78l-.38,4.79.38,4.85v.24c-.54,3.21.32,6.15,2.89,9.85a2.14,2.14,0,0,0,.53.59,1.21,1.21,0,0,0,1.26-.17,1.07,1.07,0,0,0,.16-.14h0a4,4,0,0,0,.86-1.26,18.78,18.78,0,0,0,2.3-9l-.31-5.16v-.1l-.25-4.37Z" transform="translate(-70.53 -21.46)"/><path class="cls-4" d="M147.09,90.54a8,8,0,0,0,2.73,2.8c1.79,1.17,4.33,2.2,6.52,1.85l-.15-5a17.76,17.76,0,0,1-4.83,0,12.15,12.15,0,0,1-4.16-1Z" transform="translate(-70.53 -21.46)"/><path class="cls-4" d="M155.41,95.76a11.54,11.54,0,0,1-5.86-2,8.37,8.37,0,0,1-2.9-3,.42.42,0,0,1,0-.27l.09-1.29a.53.53,0,0,1,.25-.41.51.51,0,0,1,.48,0,11.72,11.72,0,0,0,4,.92,17.69,17.69,0,0,0,4.71,0,.43.43,0,0,1,.39.12.46.46,0,0,1,.19.36l.15,4.95a.51.51,0,0,1-.43.52A6.33,6.33,0,0,1,155.41,95.76Zm-7.8-5.33a7.47,7.47,0,0,0,2.49,2.48,9.78,9.78,0,0,0,5.72,1.82l-.12-3.93a19.62,19.62,0,0,1-4.4-.08,15.73,15.73,0,0,1-3.66-.73Z" transform="translate(-70.53 -21.46)"/><path class="cls-3" d="M151.37,91.41h.88a7.38,7.38,0,0,0,7.46-7.3h0a61.33,61.33,0,0,0-.64-6.76s-3.4-1.22-6.09-2.23c-4.48-1.7-5.68-4.06-5.68-4.06a18.1,18.1,0,0,1-1,4.71,21.45,21.45,0,0,1-2,3s-.13,3.64-.15,5.15A7.39,7.39,0,0,0,151.37,91.41Z" transform="translate(-70.53 -21.46)"/><path class="cls-4" d="M152.31,92h-.95a7.92,7.92,0,0,1-7.81-8c0-1.52.14-5.17.14-5.17a.56.56,0,0,1,.12-.3,22.1,22.1,0,0,0,1.93-3,17.77,17.77,0,0,0,1-4.54.53.53,0,0,1,.43-.48.5.5,0,0,1,.56.29s1.21,2.27,5.41,3.85c2.66,1,6.09,2.24,6.09,2.24a.51.51,0,0,1,.35.41,58.17,58.17,0,0,1,.64,6.84A7.91,7.91,0,0,1,152.31,92Zm-.94-1h.88a6.6,6.6,0,0,0,4.86-2,6.76,6.76,0,0,0,2-4.82,52.37,52.37,0,0,0-.59-6.37c-.88-.32-3.58-1.3-5.78-2.13a13.21,13.21,0,0,1-5.15-3.25,16.81,16.81,0,0,1-.93,3.56,20.81,20.81,0,0,1-2,3c0,.73-.13,3.65-.14,5a6.83,6.83,0,0,0,6.76,6.92h0Z" transform="translate(-70.53 -21.46)"/><path class="cls-4" d="M152.12,83.6a11.15,11.15,0,0,1-1.29-.07.53.53,0,0,1-.45-.59.52.52,0,0,1,.58-.44h0a9.84,9.84,0,0,0,1.88,0,12.73,12.73,0,0,0-1.09-4.16.54.54,0,0,1,1-.38c.47,1.23,1.54,4.21,1,5.16a.83.83,0,0,1-.62.4A7.42,7.42,0,0,1,152.12,83.6Z" transform="translate(-70.53 -21.46)"/><ellipse class="cls-4" cx="148.5" cy="79.44" rx="1.25" ry="0.51" transform="translate(-3.1 205.6) rotate(-89.37)"/><ellipse class="cls-4" cx="155.21" cy="79.28" rx="1.25" ry="0.51" transform="translate(3.7 212.15) rotate(-89.37)"/><path class="cls-3" d="M160.72,97.52c0,2,.15,6.16-4.23,13.83l-4.24-4.65c1.09-2,3.89-3.42,4.11-10.7v-.54a.51.51,0,0,1,.17-.07c1.6-.69,4,.53,4.19,1.38A4.69,4.69,0,0,1,160.72,97.52Z" transform="translate(-70.53 -21.46)"/><path class="cls-4" d="M156.49,111.87a.51.51,0,0,1-.38-.16l-4.3-4.66a.53.53,0,0,1-.08-.6,9.17,9.17,0,0,1,1-1.52c1.26-1.59,2.82-3.57,3-9a4.51,4.51,0,0,0,0-.52A.52.52,0,0,1,156,95a1.11,1.11,0,0,1,.27-.12,4.16,4.16,0,0,1,3.31.28c.39.19,1.35.72,1.54,1.47a3.77,3.77,0,0,1,0,.89v.28c0,2.22,0,6.36-4.3,13.8a.49.49,0,0,1-.4.26Zm-3.65-5.25,3.54,3.85c3.78-6.82,3.8-10.61,3.82-12.67v-.28h0a3.31,3.31,0,0,0,0-.63,2.22,2.22,0,0,0-1-.77,3.28,3.28,0,0,0-2.34-.28.54.54,0,0,0,0,.18c-.18,5.72-1.94,8-3.22,9.57-.29.36-.56.72-.78,1Z" transform="translate(-70.53 -21.46)"/><path class="cls-3" d="M151.81,106.74l-4.71,4.64c-5.17-3.57-4.14-14-4-14.58a2,2,0,0,1,1-1h0a3.67,3.67,0,0,1,3.33-.31v.11C147.67,103.13,150.7,104.65,151.81,106.74Z" transform="translate(-70.53 -21.46)"/><path class="cls-4" d="M147.1,111.87a.55.55,0,0,1-.3-.09c-5.7-3.94-4.2-15-4.17-15.14a2.46,2.46,0,0,1,1.23-1.31h0a4.17,4.17,0,0,1,3.82-.33.55.55,0,0,1,.29.47v.11c.14,5.57,1.81,7.67,3.16,9.36a10,10,0,0,1,1.11,1.56.53.53,0,0,1-.09.62l-4.71,4.62A.51.51,0,0,1,147.1,111.87Zm-2.74-15.63a1.86,1.86,0,0,0-.73.66c-.23.93-.95,10.25,3.42,13.76l4.06-4.06a12.34,12.34,0,0,0-.8-1.07c-1.36-1.69-3.2-4-3.4-9.78a3.49,3.49,0,0,0-2.56.43Z" transform="translate(-70.53 -21.46)"/><path class="cls-4" d="M153.38,84.92h-2.46s-.28,4.4,1.23,3.93C153.38,88.47,153.69,86.54,153.38,84.92Z" transform="translate(-70.53 -21.46)"/><path d="M140.64,96c-.43-1.32-30.3,15.07-35.66,18.68s-12.4,30.45-12.4,30.45l11.28.55s8.8-21.1,12.74-24.52,20.71-9.81,20.71-9.81Z" transform="translate(-70.53 -21.46)"/><path class="cls-3" d="M296.91,52.33a9.29,9.29,0,0,0,.56-3.17c-.2-1-.94-2.91-.56-4.06s1.67-4.78,3.17-4.68,6,1.31,6.45,3.55-4.06,13.69-4.06,13.69Z" transform="translate(-70.53 -21.46)"/><path class="cls-4" d="M302.47,58.17a.54.54,0,0,1-.36-.14L296.6,52.7a.52.52,0,0,1-.13-.53,8.31,8.31,0,0,0,.55-2.92c0-.27-.13-.57-.22-.92a6.5,6.5,0,0,1-.33-3.44c.37-1.21,1.72-5.16,3.7-5.07,1.3.08,6.35,1.28,6.91,4,.49,2.32-3.67,12.84-4.14,14a.52.52,0,0,1-.37.32Zm-4.93-6,4.74,4.58c1.78-4.58,4.11-11.29,3.8-12.75-.37-1.83-4.41-3.05-6-3.15-.83,0-2,2.15-2.67,4.32a6,6,0,0,0,.33,2.88c.1.37.19.71.24,1a8.24,8.24,0,0,1-.52,3.11Z" transform="translate(-70.53 -21.46)"/><polygon class="cls-3" points="219.48 17.53 244.99 30.55 254.13 12.82 228.41 0.53 219.48 17.53"/><path class="cls-4" d="M315.51,52.51a.38.38,0,0,1-.23-.06l-25.51-13a.51.51,0,0,1-.26-.3.49.49,0,0,1,0-.41l8.92-17a.52.52,0,0,1,.69-.23l25.72,12.29a.5.5,0,0,1,.27.3.49.49,0,0,1,0,.41L316,52.25A.5.5,0,0,1,315.51,52.51ZM290.72,38.77l24.57,12.54L324,34.52,299.17,22.68Z" transform="translate(-70.53 -21.46)"/><path class="cls-3" d="M222.08,52.33a9.24,9.24,0,0,1-.56-3.17c.19-1,.94-2.91.56-4.06s-1.68-4.78-3.17-4.68-6,1.31-6.45,3.55,4.11,13.74,4.11,13.74Z" transform="translate(-70.53 -21.46)"/><path class="cls-4" d="M216.57,58.17h-.11a.54.54,0,0,1-.37-.32c-.46-1.18-4.61-11.7-4.13-14,.56-2.68,5.61-3.88,6.91-4,2-.14,3.32,3.82,3.7,5.07a6.71,6.71,0,0,1-.33,3.44c-.09.35-.17.65-.22.92a8.3,8.3,0,0,0,.54,2.92.5.5,0,0,1-.12.53l-5.51,5.33A.57.57,0,0,1,216.57,58.17ZM219,40.91h0c-1.57.11-5.61,1.32-6,3.15-.31,1.46,2,8.12,3.8,12.75l4.74-4.58a8.11,8.11,0,0,1-.47-3.13c.05-.28.14-.61.23-1a6.15,6.15,0,0,0,.34-2.88c-.68-2.15-1.84-4.34-2.66-4.34Z" transform="translate(-70.53 -21.46)"/><path class="cls-4" d="M286.67,264.21c.09.29-.85,8.88,0,10.29s9.06,5.42,12.61,2.8.85-4.83,0-6.09-4.39-8.94-4.39-8.94Z" transform="translate(-70.53 -21.46)"/><path class="cls-4" d="M296.14,278.67a12.21,12.21,0,0,1-2.33-.25c-3.29-.66-6.92-2.56-7.58-3.66s-.5-4.16-.15-9c0-.68.09-1.38.09-1.51a.38.38,0,0,1,0-.36.5.5,0,0,1,.33-.2l8.24-2a.49.49,0,0,1,.57.28c0,.07,3.55,7.64,4.36,8.87a4.92,4.92,0,0,0,.44.58,4.77,4.77,0,0,1,1.4,3.44,4.23,4.23,0,0,1-2,2.77A5.75,5.75,0,0,1,296.14,278.67Zm-9-14a8.66,8.66,0,0,1-.08,1.24c-.15,2-.53,7.47,0,8.37.42.71,3.64,2.54,6.91,3.2,1.53.3,3.62.46,5-.54a3.35,3.35,0,0,0,1.57-2.12,3.83,3.83,0,0,0-1.2-2.67c-.18-.23-.35-.46-.48-.65-.75-1.15-3.52-7.1-4.26-8.63Z" transform="translate(-70.53 -21.46)"/><path class="cls-4" d="M224.47,260.43s-7,11.64-5.89,14.72,11.36.42,13.32-1.82,2.1-15.85,2.1-15.85Z" transform="translate(-70.53 -21.46)"/><path class="cls-4" d="M222,277.05a8,8,0,0,1-1.55-.13,2.75,2.75,0,0,1-2.33-1.6c-1.16-3.22,5.2-13.94,5.93-15.16a.6.6,0,0,1,.28-.22l9.54-2.94a.49.49,0,0,1,.63.33.45.45,0,0,1,0,.16c0,1.42-.21,13.85-2.23,16.17C230.86,275.28,225.66,277.05,222,277.05Zm2.82-16.24c-2.76,4.61-6.49,12.05-5.74,14.12.17.48.69.79,1.55,1,3.17.59,9.48-1.31,10.9-2.94s1.89-10.66,2-14.82Z" transform="translate(-70.53 -21.46)"/><path class="cls-4" d="M243.25,147.3s-9.67,54.95-12.75,68.41-8.69,46.54-8.69,46.54,4.48,3.05,11.77,1.12l27-83.84L286,265.61l10.93-2.51L279,151.12Z" transform="translate(-70.53 -21.46)"/><path class="cls-4" d="M286,266.12a.5.5,0,0,1-.49-.36l-24.95-84.5-26.52,82.27a.49.49,0,0,1-.35.33c-7.43,2-12-1-12.18-1.19a.52.52,0,0,1-.21-.51c.06-.32,5.64-33.25,8.7-46.56s12.66-67.85,12.76-68.4a.49.49,0,0,1,.55-.41l35.74,3.82a.51.51,0,0,1,.45.43l18,112a.49.49,0,0,1-.39.56l-10.93,2.53ZM260.64,179h0a.53.53,0,0,1,.48.37L286.39,265l10-2.32L278.57,151.59l-34.9-3.75c-.95,5.39-9.78,55.32-12.68,68s-8,42.63-8.62,46.17c1,.59,5,2.45,10.82,1l26.93-83.6a.53.53,0,0,1,.48-.37Z" transform="translate(-70.53 -21.46)"/><path d="M304.61,53.36c-2.62,9.9-19.63,53.43-20.94,56.42s-.18,43-.18,43c-10.85,6.92-41.88,3.92-42.44,2.62s.2-28.8-.74-34-26.15-67.11-26.15-67.11l9-3,9.29,20s11,18.65,13.65,20.52a8,8,0,0,0,3,1.08,41.45,41.45,0,0,0,7.87.54c5.21,1.49,11.62-.54,15.12-2.24a14.59,14.59,0,0,0,1.86-1c2.41-1.69,22.41-38.92,22.41-38.92Z" transform="translate(-70.53 -21.46)"/><path class="cls-4" d="M272.1,91.25,260.85,135,249.11,93a41.45,41.45,0,0,0,7.87.54C262.19,95,268.6,93,272.1,91.25Z" transform="translate(-70.53 -21.46)"/><path class="cls-4" d="M260.85,135.55a.5.5,0,0,1-.48-.36l-11.7-42.08a.53.53,0,0,1,.12-.48.45.45,0,0,1,.47-.15A42,42,0,0,0,257,93h.15c4.74,1.36,10.74-.25,14.76-2.21a.52.52,0,0,1,.68.27.58.58,0,0,1,0,.32l-11.25,43.8a.47.47,0,0,1-.48.37Zm-11-42,11,39.5,10.51-40.93C267.24,94,261.57,95.3,256.94,94A43.49,43.49,0,0,1,249.82,93.59Z" transform="translate(-70.53 -21.46)"/><path class="cls-3" d="M269.67,78.29c.12-.34.23-.68.32-1,1.79-6.57-.84-15-8.58-15.54a9.38,9.38,0,0,0-8.68,5c-2.22,3.87-1.6,8.82-1.19,13.07a1.39,1.39,0,0,0,.24.79c.45.52,1.31.17,1.88.16.82,0,1.68.12,2.51.17,1.44.08,2.87.13,4.3.1a42.92,42.92,0,0,0,6.21-.18c.87-.14,1.47-.14,2-.85A5.56,5.56,0,0,0,269.67,78.29Z" transform="translate(-70.53 -21.46)"/><path class="cls-4" d="M263.6,81.5h-3.09c-1.26,0-2.64,0-4.33-.09l-1-.08c-.5,0-1-.1-1.5-.09h-.44a1.55,1.55,0,0,1-2.05-.75,1.58,1.58,0,0,1-.14-.71v-.59c-.42-4.19-.88-9,1.31-12.78a9.88,9.88,0,0,1,9.13-5.21,9.46,9.46,0,0,1,7.26,4.06,15,15,0,0,1,1.78,12.18c-.1.35-.21.69-.34,1h0a5.87,5.87,0,0,1-1,1.79,2.74,2.74,0,0,1-2,1h-.31A20.35,20.35,0,0,1,263.6,81.5Zm-2.55-1h1.29a25.63,25.63,0,0,0,4.29-.18h.31a1.91,1.91,0,0,0,1.44-.62,5.4,5.4,0,0,0,.82-1.51h0c.11-.32.21-.66.3-1a13.91,13.91,0,0,0-1.63-11.31,8.42,8.42,0,0,0-6.5-3.59,8.82,8.82,0,0,0-8.12,4.7c-2,3.55-1.58,8.12-1.18,12.18l.06.59a1.08,1.08,0,0,0,.12.5c.13.16.45.13.91,0l.57-.06a8.5,8.5,0,0,1,1.6.1l.95.08c1.67.08,3,.11,4.27.09Z" transform="translate(-70.53 -21.46)"/><path class="cls-3" d="M254.51,79.09c-.4-3.27-5.76-4.26-5.63-.42a5.73,5.73,0,0,0,1.31,3.65,3.36,3.36,0,0,0,3.59,1" transform="translate(-70.53 -21.46)"/><path class="cls-4" d="M252.73,84a4.08,4.08,0,0,1-2.94-1.33,6.19,6.19,0,0,1-1.44-4,2.62,2.62,0,0,1,2.15-3,1.63,1.63,0,0,1,.31,0A4,4,0,0,1,255,79a.51.51,0,0,1-1,.13,3,3,0,0,0-3.1-2.45c-.59,0-1.58.37-1.52,1.95a5.19,5.19,0,0,0,1.2,3.35,2.86,2.86,0,0,0,3.05.84.51.51,0,0,1,.66.28.53.53,0,0,1-.28.67A3.36,3.36,0,0,1,252.73,84Z" transform="translate(-70.53 -21.46)"/><path class="cls-3" d="M266.19,79.09c.41-3.27,5.78-4.26,5.65-.42a5.74,5.74,0,0,1-1.32,3.65,3.36,3.36,0,0,1-3.59,1" transform="translate(-70.53 -21.46)"/><path class="cls-4" d="M268,84a3.38,3.38,0,0,1-1.22-.22.51.51,0,0,1,.39-1,2.84,2.84,0,0,0,3-.84,5.22,5.22,0,0,0,1.18-3.32c0-1.58-.93-1.9-1.52-2a3,3,0,0,0-3.11,2.45.51.51,0,0,1-.57.44.51.51,0,0,1-.44-.55v0a4,4,0,0,1,4.19-3.33,2.62,2.62,0,0,1,2.49,2.74l0,.3a6.13,6.13,0,0,1-1.46,4A4,4,0,0,1,268,84Z" transform="translate(-70.53 -21.46)"/><path class="cls-3" d="M254.11,95.33a17.18,17.18,0,0,0,6.74,1.41c4.25.15,5-1,5-1l-.1-2.27-.24-5.3-.22-4.94-9.71-.34-.47,4.06-.14,1.3Z" transform="translate(-70.53 -21.46)"/><path class="cls-4" d="M261.57,97.26h-.72a17.65,17.65,0,0,1-6.94-1.48.48.48,0,0,1-.27-.5l1.42-12.45a.49.49,0,0,1,.52-.44l9.71.33a.53.53,0,0,1,.5.49l.56,12.51a.52.52,0,0,1-.09.29C266.09,96.22,265.25,97.26,261.57,97.26ZM254.64,95a18.15,18.15,0,0,0,6.21,1.22c3,.1,4.13-.48,4.43-.7l-.53-11.82L256,83.4Z" transform="translate(-70.53 -21.46)"/><path class="cls-4" d="M254.92,88.2a8.68,8.68,0,0,0,3,2.92c2,1.22,5.13,2.63,7.69,2.34l-.24-5.3a24.15,24.15,0,0,1-5.57-.12,16.13,16.13,0,0,1-4.8-1.11Z" transform="translate(-70.53 -21.46)"/><path class="cls-4" d="M265,94c-2.71,0-5.64-1.5-7.23-2.46a9,9,0,0,1-3.27-3,.48.48,0,0,1-.07-.31l.14-1.31a.52.52,0,0,1,.26-.38.47.47,0,0,1,.46,0,15.8,15.8,0,0,0,4.65,1,22.35,22.35,0,0,0,5.48.15.56.56,0,0,1,.39.13.5.5,0,0,1,.18.36l.23,5.29a.5.5,0,0,1-.44.53Q265.37,94,265,94Zm-9.55-5.92a8.23,8.23,0,0,0,2.85,2.59c1.24.74,4.27,2.39,6.89,2.3L265,88.72a25,25,0,0,1-5.19-.21,19.1,19.1,0,0,1-4.3-.88Z" transform="translate(-70.53 -21.46)"/><path class="cls-3" d="M268.86,70.28l-.41,11.78a6.16,6.16,0,0,1-.21,1.49,7.45,7.45,0,0,1-7.49,5.7h-.87a7.46,7.46,0,0,1-6.95-5.59,7.55,7.55,0,0,1-.24-2.12l.42-11.77s1.84,2.43,7.11,2.38A20.61,20.61,0,0,0,268.86,70.28Z" transform="translate(-70.53 -21.46)"/><path class="cls-4" d="M261,89.76h-1.15a8,8,0,0,1-7.43-6,8.2,8.2,0,0,1-.24-2.26l.41-11.78a.5.5,0,0,1,.91-.28s1.82,2.25,6.71,2.17a20.11,20.11,0,0,0,8.4-1.77.52.52,0,0,1,.51,0,.51.51,0,0,1,.23.45L269,82.08a7.24,7.24,0,0,1-.21,1.6A8,8,0,0,1,261,89.76Zm-7.43-18.92-.38,10.69a6.94,6.94,0,0,0,6.7,7.18h.87a7,7,0,0,0,7-5.3,6.63,6.63,0,0,0,.18-1.4l.39-11a22,22,0,0,1-8.12,1.53,10.86,10.86,0,0,1-6.63-1.74Z" transform="translate(-70.53 -21.46)"/><path class="cls-3" d="M260.94,75.86s2.44,5.4,1.36,5.5a6.14,6.14,0,0,1-2.62-.71" transform="translate(-70.53 -21.46)"/><path class="cls-4" d="M262.11,81.86a7,7,0,0,1-2.67-.78.51.51,0,0,1,.42-.93l.06,0a6,6,0,0,0,2.15.66,17.3,17.3,0,0,0-1.59-4.79.49.49,0,0,1,.23-.66h0a.52.52,0,0,1,.68.26c.8,1.77,2,4.9,1.55,5.82a.8.8,0,0,1-.6.39Z" transform="translate(-70.53 -21.46)"/><ellipse class="cls-4" cx="186.96" cy="53.56" rx="0.51" ry="1.16"/><ellipse class="cls-4" cx="194.27" cy="53.56" rx="0.51" ry="1.16"/><path class="cls-3" d="M218.06,41.42a5.85,5.85,0,0,0-2.58,1.21c-.76.56-1.56,1.29-1.54,2.22a.42.42,0,0,0,.1.28.45.45,0,0,0,.3,0,8.15,8.15,0,0,0,3.88-1.3,4.07,4.07,0,0,0-1,4.48l.19.06" transform="translate(-70.53 -21.46)"/><path class="cls-4" d="M217.4,48.94h-.15l-.19-.06a.5.5,0,0,1-.32-.28,4.59,4.59,0,0,1,0-3.38,8.28,8.28,0,0,1-2.31.49.85.85,0,0,1-.67-.17.86.86,0,0,1-.28-.64,3.47,3.47,0,0,1,1.7-2.68,6.05,6.05,0,0,1,2.81-1.3.51.51,0,0,1,.56.43v0a.51.51,0,0,1-.45.56,5.13,5.13,0,0,0-2.32,1.12c-.84.6-1.26,1.1-1.33,1.61a7.57,7.57,0,0,0,3.44-1.21.51.51,0,0,1,.68.12.51.51,0,0,1-.06.68,3.54,3.54,0,0,0-.92,3.71.51.51,0,0,1-.19,1Z" transform="translate(-70.53 -21.46)"/><path class="cls-4" d="M261.87,83.82l-2.77-.94s-1.18,2.62.34,3.54S261.87,83.82,261.87,83.82Z" transform="translate(-70.53 -21.46)"/><path class="cls-3" d="M298.35,43.77a1.43,1.43,0,0,1,1-.58,7.21,7.21,0,0,1,2.36-.18,4,4,0,0,1,2.14.94.74.74,0,0,1,.27.4.6.6,0,0,1-.41.64,1.85,1.85,0,0,1-.81.07l-2-.14a5.48,5.48,0,0,1,1.47,1.6,1.89,1.89,0,0,1-.08,2" transform="translate(-70.53 -21.46)"/><path class="cls-4" d="M302.29,49.07A.57.57,0,0,1,302,49a.52.52,0,0,1-.06-.72,1.38,1.38,0,0,0,0-1.49,5.14,5.14,0,0,0-1.35-1.44.5.5,0,0,1,.36-.89l2,.14a1.94,1.94,0,0,0,.59,0,.28.28,0,0,0,.1-.09h0l-.11-.12a3.42,3.42,0,0,0-1.86-.8,6.66,6.66,0,0,0-2.18.16c-.26.06-.59.16-.69.34a.51.51,0,0,1-.7.2.52.52,0,0,1-.2-.7h0a1.93,1.93,0,0,1,1.36-.83,7.43,7.43,0,0,1,2.53-.17,4.36,4.36,0,0,1,2.42,1,1.29,1.29,0,0,1,.43.69,1.12,1.12,0,0,1-.72,1.2,2,2,0,0,1-1,.1h-.58a6.37,6.37,0,0,1,.53.75,2.44,2.44,0,0,1-.16,2.62A.46.46,0,0,1,302.29,49.07Z" transform="translate(-70.53 -21.46)"/><path class="cls-4" d="M260.85,159.78a.5.5,0,0,1-.5-.51V135a.5.5,0,0,1,.5-.5.51.51,0,0,1,.51.5v24.23A.52.52,0,0,1,260.85,159.78Z" transform="translate(-70.53 -21.46)"/></g></svg>